<?xml version="1.0" encoding="utf-8"?>
<!-- Generator: Adobe Illustrator 26.3.1, SVG Export Plug-In . SVG Version: 6.00 Build 0)  -->
<svg version="1.1" id="Layer_1" xmlns="http://www.w3.org/2000/svg" xmlns:xlink="http://www.w3.org/1999/xlink" x="0px" y="0px"
	 width="24px" height="24px" viewBox="0 0 24 24" style="enable-background:new 0 0 24 24;" xml:space="preserve">
<style type="text/css">
	.st0{fill:#FFFFFF;}
</style>
<g>
	<path class="st0" d="M10,15h5.9c0.3-0.3,0.7-0.5,1.1-0.5c0.8,0,1.5,0.7,1.5,1.5s-0.7,1.5-1.5,1.5c-0.4,0-0.8-0.2-1.1-0.5h-4
		c-0.5,2.3-2.5,4-4.9,4c-2.8,0-5-2.2-5-5c0-2.4,1.7-4.4,4-4.9v2.1c-1.2,0.4-2,1.5-2,2.8c0,1.6,1.3,3,3,3s3-1.4,3-3V15z M12.5,4
		c1.6,0,3,1.3,3,3h2c0-2.8-2.2-5-5-5l0,0c-2.8,0-5,2.2-5,5c0,1.4,0.6,2.7,1.6,3.6l-2.3,3.9C6,14.7,5.5,15.3,5.5,16
		c0,0.8,0.7,1.5,1.5,1.5s1.5-0.7,1.5-1.5c0-0.2,0-0.3-0.1-0.4l3.4-5.6C10.5,9.6,9.5,8.4,9.5,7C9.5,5.3,10.9,4,12.5,4z M17,13
		c-0.6,0-1.2,0.2-1.7,0.5l-3.1-5.1C11.5,8.4,11,7.7,11,7c0-0.8,0.7-1.5,1.5-1.5S14,6.2,14,7c0,0.2,0,0.3-0.1,0.4l2.2,3.7
		C16.4,11,16.7,11,17,11l0,0c2.8,0,5,2.2,5,5s-2.2,5-5,5c-1.9,0-3.5-1-4.3-2.5h2.7c0.5,0.3,1,0.5,1.7,0.5c1.6,0,3-1.4,3-3
		S18.6,13,17,13z"/>
</g>
</svg>
