<?xml version="1.0" encoding="utf-8"?>
<svg version="1.1" id="Layer_1" xmlns="http://www.w3.org/2000/svg" xmlns:xlink="http://www.w3.org/1999/xlink" x="0px" y="0px"
	 width="24px" height="24px" viewBox="0 0 24 24" style="enable-background:new 0 0 24 24;" xml:space="preserve">
<style type="text/css">
	.st0{fill:#FFFFFF;}
</style>
<g>
	<path class="st0" d="M21,3H3v18h18V3z M13,7.1L14.1,6l1.4,1.4L16.9,6L18,7.1l-1.4,1.4L18,9.9l-1.1,1.1l-1.4-1.4l-1.4,1.4L13,9.9
		l1.4-1.4L13,7.1z M6.2,7.7h5v1.5h-5V7.7z M11.5,16h-2v2H8v-2H6v-1.5h2v-2h1.5v2h2V16z M18,17.2h-5v-1.5h5V17.2z M18,14.8h-5v-1.5h5
		V14.8z"/>
</g>
</svg>
