<?xml version="1.0" encoding="utf-8"?>
<svg version="1.1" id="Layer_1" xmlns="http://www.w3.org/2000/svg" xmlns:xlink="http://www.w3.org/1999/xlink" x="0px" y="0px"
	 width="100px" height="100px" viewBox="0 0 100 100" style="enable-background:new 0 0 100 100;" xml:space="preserve">
<style type="text/css">
	.st0{fill:#FFFFFF;}
</style>
<path class="st0" d="M66.7,12.5H33.3c-11.5,0-20.8,9.3-20.8,20.8v33.3c0,11.5,9.3,20.8,20.8,20.8h33.3c11.5,0,20.8-9.3,20.8-20.8
	V33.3C87.5,21.8,78.2,12.5,66.7,12.5z M79.2,66.7c0,6.9-5.6,12.5-12.5,12.5H33.3c-6.9,0-12.5-5.6-12.5-12.5V33.3
	c0-6.9,5.6-12.5,12.5-12.5h33.3c6.9,0,12.5,5.6,12.5,12.5V66.7z"/>
<path class="st0" d="M50,29.2c-11.5,0-20.8,9.3-20.8,20.8S38.5,70.8,50,70.8S70.8,61.5,70.8,50S61.5,29.2,50,29.2z M50,62.5
	c-6.9,0-12.5-5.6-12.5-12.5S43.1,37.5,50,37.5S62.5,43.1,62.5,50S56.9,62.5,50,62.5z M70.8,25c-2.3,0-4.2,1.9-4.2,4.2
	s1.9,4.2,4.2,4.2s4.2-1.9,4.2-4.2S73.1,25,70.8,25z"/>
</svg>
