<?xml version="1.0" encoding="utf-8"?>
<svg version="1.1" id="Layer_1" xmlns="http://www.w3.org/2000/svg" xmlns:xlink="http://www.w3.org/1999/xlink" x="0px" y="0px"
	 width="840px" height="1140px" viewBox="0 0 840 1140" style="enable-background:new 0 0 840 1140;" xml:space="preserve">
<style type="text/css">
	.st0{opacity:0.4;}
	.st1{opacity:0.1;}
	.st2{fill:#FFFFFF;}
	.st3{opacity:0.1;enable-background:new    ;}
	.st4{fill:#BD3B1D;}
	.st5{fill:#59BA47;}
	.st6{fill:#1C63AF;}
</style>
<path class="st0" d="M840.5,1141.5H1.5V29.5c0-16.6,13.4-30,30-30h779c16.6,0,30,13.4,30,30V1141.5z"/>
<g class="st1">
	<path d="M425.7,919.9c-5.8,0-10.7,2.2-14.3,6.2c-3.3,3.8-5,8.4-5,13.9v57.3c0,3.2-0.7,5.7-2.1,8.1c-1.4,2.3-3.1,4-5.4,5.2
		c-2.4,1.3-4.9,1.9-7.7,1.9c-2.5,0-4.7-0.6-6.9-1.8c-2.1-1.2-3.6-2.8-4.9-5.1c-1.3-2.4-2-5.1-2-8.3v-57.2c0-5.6-2.1-10.7-6.1-14.5
		c-3.9-3.8-8.8-5.8-14.1-5.8c-5.7,0-10.8,2-14.7,5.8c-4,3.9-6.1,8.9-6.1,14.5v8.5c-0.7-1.7-1.5-3.4-2.4-5
		c-3.8-6.9-8.9-12.5-15.2-16.7c-6.6-4.3-13.7-6.5-21.1-6.5h-36.3c-5.5,0-10.4,2-14.2,5.8s-5.8,8.7-5.8,14.2v24.3
		c-1.3-4.3-3-8.4-5.1-12.4c-5.5-10.3-13.2-18.6-22.9-24.6c-9.8-6.1-20.9-9.1-33-9.1s-23.3,3.1-33,9.1S130,942,124.6,952.3
		c-0.4,0.7-0.8,1.5-1.1,2.3c-1-3.8-2.4-7.5-4.3-11c-3.8-6.9-8.9-12.5-15.2-16.7c-6.6-4.3-13.7-6.5-21.1-6.5H46.4
		c-5.5,0-10.4,2-14.2,5.8s-5.8,8.7-5.8,14.2v91.6c0,5.3,1.8,10.1,5.3,13.9c3.7,4,8.6,6.1,14.2,6.1s10.5-2.1,14.2-5.9
		c3.5-3.7,5.4-8.6,5.4-14.1v-19.6h17.3c7.5,0,14.6-2.2,21.1-6.6c5.1-3.4,9.4-7.7,12.8-12.9c0.9,9.4,3.5,18.3,7.8,26.5
		c5.4,10.3,13.1,18.6,22.8,24.6c9.8,6.1,20.9,9.1,33.1,9.1c12.1,0,23.3-3.1,33-9.1s17.4-14.3,22.9-24.6c2.1-4,3.8-8.1,5.1-12.4v24.9
		c0,5.3,1.8,10.1,5.3,13.9c3.7,4,8.6,6.1,14.2,6.1c5.6,0,10.5-2.1,14.2-5.9c3.5-3.7,5.4-8.6,5.4-14.1v-19.6h17.3
		c7.5,0,14.6-2.2,21.1-6.6c6.3-4.2,11.4-9.8,15.2-16.8c0.9-1.6,1.7-3.3,2.3-5V997c0,10.5,2.3,20.1,6.8,28.4
		c4.6,8.5,11.2,15.2,19.6,19.9c8.3,4.7,17.7,7.1,28.1,7.1s19.8-2.4,28-7.1c8.3-4.8,14.9-11.5,19.5-19.9c4.5-8.3,6.8-17.8,6.8-28.4
		v-57.1c0-5.5-1.9-10.4-5.4-14.2C436.3,922,431.4,919.9,425.7,919.9z M160.7,1000.7c-2.1-4.4-3.2-9.3-3.2-14.8s1.1-10.5,3.2-14.8
		c2-4.1,4.6-7.3,8.1-9.6c3.4-2.2,7-3.3,11.5-3.3c4.3,0,8,1.1,11.4,3.3c3.6,2.4,6.3,5.5,8.3,9.7c2.1,4.3,3.2,9.2,3.2,14.6
		c0,5.4-1.1,10.4-3.2,14.6c-2,4.1-4.8,7.3-8.3,9.7c-3.4,2.3-7,3.3-11.4,3.3c-4.5,0-8.1-1-11.5-3.3
		C165.4,1008,162.7,1004.8,160.7,1000.7z M81.4,973.4H65.3v-14h16.2l0,0c0.7,0.6,1.4,1.5,1.9,2.8c0.6,1.4,0.9,2.8,0.9,4.4
		c0,1.4-0.4,2.7-1,4C82.9,971.8,82.2,972.8,81.4,973.4z M296.4,973.4h-16.1v-14h16.2l0,0c0.7,0.6,1.4,1.5,1.9,2.8
		c0.6,1.4,0.9,2.8,0.9,4.4c0,1.4-0.4,2.7-1,4C297.9,971.8,297.2,972.8,296.4,973.4z"/>
	<path d="M806.8,979.9c-4.1-7.2-9.9-12.9-17.1-17c-3.5-2-7.1-3.5-11-4.5h12.9c5.2,0,9.9-1.9,13.5-5.4c3.7-3.6,5.7-8.3,5.7-13.5
		c0-5.3-1.9-10-5.6-13.6c-3.6-3.6-8.3-5.5-13.6-5.5h-45.7c-5.9,0-11.2,2.3-15.1,6.7c-2.3,2.5-3.8,5.7-4.5,9.3v0.3l-2.1,16.8
		c-0.9-4.2-2.4-8.2-4.4-11.9c-3.8-6.8-9.2-12.3-16.2-16.2c-6.8-3.8-14.7-5.7-23.4-5.7c-6.3,0-12.9,1.5-19.5,4.6
		c-6.4,2.9-12,6.9-16.9,11.7c-2.5,2.5-4.4,4.7-5.8,6.9c-1-3.5-3.2-7.4-7.6-11c-4.8-4-10.8-7.3-17.8-9.7c-6.9-2.4-14.3-3.6-22.1-3.6
		c-8.8,0-16.9,1.6-24.2,4.7c-7.8,3.3-14,8.3-18.6,14.7c-1.8,2.6-3.3,5.3-4.4,8.2c-0.4-0.9-0.9-1.8-1.3-2.6
		c-3.8-6.9-8.9-12.5-15.2-16.7c-6.6-4.3-13.7-6.5-21.1-6.5h-36.3c-5.5,0-10.4,2-14.2,5.8c-3.8,3.8-5.8,8.7-5.8,14.2v91.6
		c0,5.3,1.8,10.1,5.3,13.9c3.7,4,8.6,6.1,14.2,6.1s10.5-2.1,14.2-5.9c3.5-3.7,5.4-8.6,5.4-14.1v-19.6h17.3c7.5,0,14.6-2.2,21.1-6.6
		c6.3-4.2,11.4-9.8,15.2-16.8c1.4-2.5,2.5-5.1,3.4-7.8c5.4,10,16.5,19.4,38.7,22.6c10.1,1.5,14.4,3.5,16.1,4.6
		c1.4,0.9,1.5,1.4,1.6,2.3c-0.2,0.2-0.6,0.6-1.5,1.2c-2.6,1.6-5.9,2.4-9.8,2.4c-4.2,0-7.7-0.6-10.5-1.7c-3-1.2-6.2-3.2-9.7-6.1
		c-3.5-2.8-7.4-4.2-11.8-4.2c-5.3,0-10.1,2-13.9,5.9c-3.7,3.8-5.6,8.5-5.6,13.6c0,4.2,1.3,10.4,7.8,16.1c6.2,5.5,13,9.4,20.3,11.7
		c6.9,2.2,14.8,3.3,23.4,3.3c8.6,0,16.7-1.6,24.2-4.9c7.9-3.4,14.3-8.4,19.1-14.8c0.8-1.1,1.5-2.2,2.2-3.3c-0.1,1-0.2,2-0.2,3
		c0,5.3,1.8,9.9,5.2,13.5c2.5,2.6,6.9,5.8,14,5.8h53.7c5.2,0,9.9-1.9,13.5-5.4c1.9-1.9,3.4-4,4.3-6.4c0.9,1.2,1.9,2.2,3,3.1
		c3.8,3.1,8.6,5.5,14.3,7.1c5.3,1.5,10.5,2.3,15.6,2.3c9.4,0,18.2-2.2,26.3-6.5c8.1-4.3,14.7-10.3,19.7-17.7
		c5.1-7.7,7.7-16.2,7.7-25.3C813,995.1,810.9,987.1,806.8,979.9z M742.8,1001.2c2.4,0,4.8-0.4,7.1-1.3c1.4-0.5,3.2-1.3,5.3-2.4
		c2.2-1.1,4.1-1.9,5.6-2.4c0.6-0.2,1.6-0.4,3.2-0.4c2.8,0,4.9,0.8,6.9,2.7c1.8,1.6,2.5,3.5,2.5,6.3c0,1.8-0.5,3.5-1.6,5.1
		c-1.3,2-3,3.5-5.3,4.7s-4.7,1.8-7.4,1.8c-1,0-3.1-0.6-6-2.4c-4.6-3.2-8.7-4.7-12.8-4.7c-5.2,0-9.9,1.8-13.4,5.1
		c-2.4,2.2-3.8,4.5-4.6,6.7l-0.1-0.1c-3.6-3.6-8.3-5.5-13.6-5.5h-8.7l3.7-4c6.4-6.9,11.6-14.3,15.5-21.9c0.9-1.7,1.6-3.4,2.3-5.2
		c0.6,3.9,2.1,7.5,4.5,10.6C728.5,997.3,733.6,1001.2,742.8,1001.2z M504.4,973.4h-16.1v-14h16.2l0,0c0.7,0.6,1.4,1.5,1.9,2.8
		c0.6,1.4,0.9,2.8,0.9,4.4c0,1.4-0.4,2.7-1,4C505.8,971.8,505.2,972.8,504.4,973.4z M635.6,987.2c-3.8-5.9-9.4-10.6-16.7-13.9
		c-6.2-2.8-14.4-5.1-24.2-6.9c-8.8-1.6-12.6-3.4-14.1-4.3c-0.6-0.4-0.7-0.5-0.7-1.5c0-0.3,0-0.4,0-0.4s0.1-0.3,0.9-0.8
		c1.1-0.7,3.7-1.9,9.6-1.9c2.6,0,5.9,0.7,9.6,2.1c4.8,1.8,7.3,3.4,8.7,4.5l0.2,0.2c3.1,2.3,6.6,3.5,10.5,3.5c5.2,0,10-2,13.7-5.9
		c0.8-0.9,1.6-1.8,2.2-2.7c0.9,2.6,2.5,5.4,5.4,8.1c3.8,3.5,8.5,5.4,13.4,5.4c6.2,0,11.7-2.8,15.5-7.9c1.8-2.4,3.8-4.3,5.9-5.7
		c1.4-0.9,2.6-1.4,3.6-1.4c1.2,0,2.5,0.3,4.3,2.1c1.5,1.5,2.1,3.1,2.1,5.1c0,1.3-0.4,3.5-2.2,6.9c-1.8,3.5-4.4,7-7.7,10.5
		l-34.3,36.7c-0.5,0.5-1,1.1-1.4,1.6c0.9-3.5,1.4-7.1,1.4-10.9C641.3,1000.7,639.4,993.1,635.6,987.2z"/>
</g>
<path class="st2" d="M46.7,1041.1c-4.1,0-7.8-1.6-10.5-4.5c-2.6-2.8-3.9-6.4-3.9-10.5v-91.6c0-4.1,1.5-7.8,4.4-10.7
	c2.8-2.8,6.5-4.3,10.7-4.3h36.3c6.5,0,12.6,1.9,18.4,5.7c5.6,3.7,10.1,8.7,13.5,14.9s5.1,13.1,5.1,20.4c0,7.2-1.7,14-5.1,20.3
	s-7.9,11.3-13.5,15c-5.7,3.8-11.9,5.7-18.4,5.7H61.3v24.6c0,4.2-1.3,7.8-4,10.6C54.6,1039.6,50.9,1041.1,46.7,1041.1z M83.2,972.5
	c0.8,0,1.8-0.7,2.4-1.2c1.3-1.1,2.4-2.6,3.2-4.5c0.9-1.9,1.4-3.9,1.4-6c0.1-2.3-0.4-4.5-1.3-6.6c-0.9-1.9-1.9-3.4-3.3-4.5
	c-0.9-0.8-1.8-1.2-2.5-1.2H61.3v24H83.2z"/>
<path class="st2" d="M181.3,1042.3c-11.2,0-21.4-2.8-30.4-8.4c-9-5.5-16-13.2-21.1-22.7c-5-9.4-7.5-19.9-7.5-31.2s2.5-21.8,7.5-31.2
	c5-9.5,12.1-17.1,21.1-22.7c9-5.6,19.2-8.4,30.4-8.4s21.4,2.8,30.4,8.4c8.9,5.5,16.1,13.2,21.1,22.7c5,9.4,7.6,20,7.6,31.2
	c0,11.3-2.6,21.8-7.6,31.2c-5.1,9.5-12.2,17.1-21.1,22.7C202.7,1039.4,192.4,1042.3,181.3,1042.3z M181.3,947.3
	c-5.4,0-10.1,1.3-14.2,4.1c-4.2,2.8-7.5,6.6-9.9,11.6s-3.7,10.8-3.7,17s1.2,12,3.7,17c2.4,5,5.6,8.8,9.9,11.6
	c4.2,2.8,8.8,4.1,14.2,4.1c5.3,0,9.9-1.4,14.1-4.2c4.3-2.9,7.6-6.7,10.1-11.6c2.5-5,3.7-10.7,3.7-16.9s-1.3-11.9-3.7-16.9
	c-2.4-4.9-5.7-8.7-10.1-11.6C191.2,948.7,186.6,947.3,181.3,947.3z"/>
<path class="st2" d="M261.7,1041.1c-4.1,0-7.8-1.6-10.5-4.5c-2.6-2.8-3.9-6.4-3.9-10.5v-91.6c0-4.1,1.5-7.8,4.4-10.7
	c2.8-2.8,6.5-4.3,10.7-4.3h36.3c6.5,0,12.6,1.9,18.4,5.7c5.6,3.7,10.1,8.7,13.5,14.9s5.1,13.1,5.1,20.4c0,7.2-1.7,14-5.1,20.3
	s-7.9,11.3-13.5,15c-5.7,3.8-11.9,5.7-18.4,5.7h-22.3v24.6c0,4.2-1.3,7.8-4,10.6C269.6,1039.6,265.9,1041.1,261.7,1041.1z
	 M298.2,972.5c0.8,0,1.8-0.7,2.4-1.2c1.3-1.1,2.4-2.6,3.2-4.5c0.9-1.9,1.4-3.9,1.4-6c0.1-2.3-0.4-4.5-1.3-6.6
	c-0.9-1.9-1.9-3.4-3.3-4.5c-0.9-0.8-1.8-1.2-2.5-1.2h-21.9v24H298.2z"/>
<path class="st2" d="M391.9,1041.6c-9.5,0-18.1-2.2-25.6-6.4c-7.6-4.3-13.5-10.4-17.7-18c-4.1-7.5-6.2-16.3-6.2-26v-57
	c0-4.3,1.6-8.1,4.6-11s6.8-4.4,11.3-4.4c4,0,7.7,1.5,10.6,4.4c3,2.9,4.6,6.7,4.6,11v57.2c0,4.1,0.9,7.6,2.6,10.8
	c1.7,3.1,4,5.4,6.8,7c2.9,1.6,6,2.4,9.4,2.4c3.6,0,6.9-0.8,10.1-2.5c3.1-1.6,5.5-3.9,7.3-7c1.9-3.1,2.8-6.6,2.8-10.6v-57.3
	c0-4.2,1.3-7.8,3.7-10.6c2.6-3,6.3-4.5,10.6-4.5c4.2,0,7.9,1.5,10.6,4.4c2.7,2.8,4,6.5,4,10.7v57.1c0,9.7-2.1,18.4-6.2,26
	c-4.2,7.6-10.1,13.7-17.6,18C410,1039.4,401.4,1041.6,391.9,1041.6z"/>
<path class="st2" d="M469.7,1041.1c-4.1,0-7.8-1.6-10.5-4.5c-2.6-2.8-3.9-6.4-3.9-10.5v-91.6c0-4.1,1.5-7.8,4.4-10.7
	c2.8-2.8,6.6-4.3,10.7-4.3h36.3c6.5,0,12.6,1.9,18.4,5.7c5.6,3.7,10.1,8.7,13.5,14.9c3.4,6.2,5.1,13.1,5.1,20.4
	c0,7.2-1.7,14-5.1,20.3c-3.4,6.3-7.9,11.3-13.5,15c-5.7,3.8-11.9,5.7-18.4,5.7h-22.3v24.6c0,4.2-1.3,7.8-4,10.6
	C477.6,1039.6,473.9,1041.1,469.7,1041.1z M506.2,972.5c0.8,0,1.8-0.7,2.4-1.2c1.3-1.1,2.4-2.6,3.2-4.4c0.9-1.9,1.4-3.9,1.4-6
	c0.1-2.3-0.4-4.5-1.3-6.6c-0.9-1.9-1.9-3.4-3.3-4.5c-0.9-0.8-1.8-1.2-2.5-1.2h-21.9v24L506.2,972.5L506.2,972.5z"/>
<path class="st2" d="M591.3,1042.3c-8.1,0-15.5-1-21.9-3.1c-6.6-2.1-12.8-5.7-18.5-10.7c-5-4.5-6.1-9.2-6.1-12.4
	c0-3.8,1.5-7.3,4.2-10.1c2.8-2.9,6.3-4.4,10.3-4.4c3.2,0,6.2,1,8.7,3.1c3.8,3.2,7.5,5.4,11,6.8c3.4,1.3,7.5,2,12.3,2
	c4.9,0,9-1,12.5-3.2c3.9-2.4,3.9-4.5,3.9-5.3c0-2.9-1.2-5-3.9-6.7c-2.5-1.6-7.6-3.8-18-5.3c-32.4-4.7-39.2-23-39.2-37.5
	c0-7.7,2.1-14.6,6.2-20.4c4-5.7,9.6-10.1,16.5-13c6.7-2.9,14.1-4.3,22.2-4.3c7.2,0,14.1,1.1,20.5,3.3s11.9,5.2,16.3,8.8
	c5.4,4.3,6.5,9.2,6.5,12.5c0,3.8-1.5,7.3-4.2,10.1c-2.8,2.9-6.3,4.4-10.1,4.4c-2.8,0-5.3-0.8-7.5-2.5l-0.1-0.1
	c-2.3-1.8-5.7-3.6-10-5.3c-4.3-1.6-8.1-2.4-11.3-2.4c-5.5,0-9.7,0.9-12.4,2.8c-2.8,1.9-3.1,3.8-3.1,5.3c0,2.7,0.9,4.4,3.1,5.8
	c2.2,1.3,6.7,3.3,15.8,5c9.4,1.6,17.2,3.8,23,6.5c6.4,2.9,11.2,7,14.5,12.1s5,11.8,5,19.9c0,7.8-2.2,14.7-6.7,20.7
	c-4.3,5.7-10,10.2-17.1,13.3C606.6,1040.8,599.1,1042.3,591.3,1042.3z"/>
<path class="st2" d="M655.7,1041.5c-5.3,0-8.6-2.3-10.4-4.2c-2.5-2.7-3.8-6.2-3.8-10.1c0-4,1.5-7.6,4.3-10.6l34.4-36.8
	c3.5-3.8,6.4-7.7,8.4-11.6c1.8-3.5,2.8-6.6,2.8-9.3c0-3.3-1.2-6.2-3.6-8.6c-2.4-2.5-4.9-3.6-7.9-3.6c-2,0-4.1,0.7-6.3,2.2
	c-2.6,1.7-5,4-7.1,6.9c-2.9,3.9-6.9,5.9-11.5,5.9c-3.7,0-7-1.4-10-4.1c-3.8-3.5-4.6-7.3-4.6-9.9c0-2.6,0.8-5.2,2.4-7.7
	c1.3-2,3-4.1,5.4-6.5c4.4-4.4,9.6-8,15.4-10.7c5.9-2.7,11.8-4.1,17.4-4.1c7.8,0,14.9,1.7,20.9,5.1c6.1,3.4,10.9,8.2,14.2,14.2
	c3.3,5.9,4.9,12.7,4.9,20.1c0,7.2-1.9,14.7-5.7,22.2c-3.6,7.2-8.6,14.2-14.7,20.7l-11.7,12.4h20.3c3.9,0,7.4,1.4,10.1,4.1
	c2.7,2.7,4.1,6.2,4.1,10.1c0,3.8-1.4,7.3-4.1,9.9c-2.7,2.6-6.1,3.9-10,3.9L655.7,1041.5L655.7,1041.5z"/>
<path class="st2" d="M760.1,1042.3c-4.6,0-9.4-0.7-14.2-2.1c-5-1.5-9.2-3.5-12.5-6.2c-2-1.6-3.5-3.8-4.7-6.4
	c-1.1-2.6-1.7-5.1-1.7-7.5c0-2.3,0.7-5.8,4.1-9c2.6-2.4,6.1-3.7,10-3.7c3,0,6.3,1.3,10,3.9c3.4,2.1,6.5,3.2,8.8,3.2
	c3.5,0,6.6-0.8,9.7-2.4c3-1.6,5.4-3.7,7.2-6.3c1.7-2.5,2.5-5.1,2.5-7.9c0-4.2-1.3-7.4-4.1-10c-2.9-2.7-6.3-4-10.3-4
	c-1.8,0-3.5,0.2-4.8,0.7c-1.7,0.6-3.8,1.4-6.2,2.6c-2,1-3.7,1.8-4.9,2.2c-1.7,0.6-3.5,1-5.3,1c-5.8,0-10.2-1.8-12.9-5.3
	c-2.5-3.2-3.7-6.9-3.7-11.2c0-1.3,0.1-2.3,0.2-3.1l4.9-39.1v-0.1c0.5-2.5,1.6-5,3.3-6.9c3-3.4,6.9-5.1,11.4-5.1h45.7
	c3.9,0,7.4,1.4,10.1,4.1c2.7,2.7,4.1,6.2,4.1,10.1c0,3.8-1.4,7.3-4.1,9.9c-2.7,2.6-6.1,3.9-10,3.9H758l-1.3,9.6
	c3.4-0.8,6.7-1.2,9.9-1.2c7.8,0,15.1,1.9,21.5,5.5c6.4,3.7,11.6,8.8,15.2,15.2c3.7,6.4,5.5,13.5,5.5,21.3c0,8.1-2.3,15.7-6.9,22.5
	c-4.5,6.7-10.5,12.1-17.9,16C776.7,1040.3,768.7,1042.3,760.1,1042.3z"/>
<g>
	<path class="st2" d="M57.3,888.2c0.4,0.5,0.7,1.1,0.7,1.8v8.8c0,1-0.4,1.7-1.2,2.3c-2.1,1.4-4.3,2.2-6.6,2.5
		c-3.3,0.4-6.7-0.5-9.5-2.5c-1.8-1.3-3.2-2.9-4.3-4.9c-1.3-2.3-1.9-4.8-1.9-7.5s0.6-5.2,1.9-7.5c1.6-3,4-5.1,7.1-6.5
		c1.2-0.5,2.4-0.8,3.7-0.9c3.1-0.2,5.7,0.3,7.9,1.6c0.4,0.2,0.7,0.5,0.9,0.9s0.3,0.8,0.3,1.2c0,0.7-0.2,1.3-0.6,1.8
		c-0.4,0.5-0.9,0.8-1.6,0.8c-0.4,0-0.8-0.1-1.3-0.3c-1.4-0.6-2.8-1-4.3-1c-1.6,0-3.2,0.5-4.5,1.4c-1.4,0.9-2.5,2.1-3.3,3.6
		s-1.2,3.2-1.2,5s0.4,3.5,1.2,5c0.8,1.5,1.9,2.7,3.3,3.6c1.4,0.9,2.9,1.4,4.5,1.4c0.7,0,1.5-0.1,2.3-0.2c0.8-0.1,1.5-0.3,2.2-0.5
		v-5.4h-3.6c-0.7,0-1.2-0.2-1.7-0.7c-0.4-0.5-0.7-1.1-0.7-1.8s0.2-1.3,0.7-1.8c0.4-0.5,1-0.7,1.7-0.7h6.3
		C56.3,887.5,56.9,887.7,57.3,888.2z"/>
	<path class="st2" d="M80.2,898.2c0.5,0.5,0.7,1.1,0.7,1.8s-0.2,1.3-0.7,1.8s-1,0.7-1.7,0.7h-13c-0.7,0-1.3-0.2-1.7-0.7
		c-0.5-0.5-0.7-1.1-0.7-1.9v-24.7c0-0.7,0.2-1.4,0.7-1.9c0.5-0.5,1-0.7,1.8-0.7c0.6,0,1.2,0.2,1.7,0.6c0.6,0.5,0.8,1.2,0.8,2v22.3
		h10.4C79.1,897.5,79.7,897.7,80.2,898.2z"/>
	<path class="st2" d="M111.8,895.7c-1.2,2.3-2.9,4.2-5.1,5.5c-2.2,1.4-4.6,2-7.4,2c-2.7,0-5.2-0.7-7.4-2c-2.2-1.4-3.9-3.2-5.1-5.5
		S85,890.8,85,888s0.6-5.3,1.8-7.7c1.2-2.3,2.9-4.2,5.1-5.5c2.2-1.4,4.6-2,7.4-2c2.7,0,5.2,0.7,7.4,2c2.2,1.4,3.9,3.2,5.1,5.5
		s1.9,4.9,1.9,7.7S113,893.4,111.8,895.7z M107,882.9c-0.8-1.5-1.8-2.7-3.2-3.7c-1.4-0.9-2.9-1.4-4.6-1.4s-3.2,0.4-4.6,1.3
		c-1.3,0.9-2.4,2.1-3.1,3.7s-1.1,3.3-1.1,5.1c0,1.9,0.4,3.6,1.1,5.1s1.8,2.8,3.1,3.7c1.3,0.9,2.9,1.3,4.6,1.3s3.2-0.4,4.6-1.4
		c1.4-0.9,2.4-2.1,3.2-3.7s1.1-3.2,1.1-5.1C108.1,886.2,107.8,884.5,107,882.9z"/>
	<path class="st2" d="M140.7,888.6c1,1.2,1.4,2.8,1.4,4.8c0,3.4-1,5.8-2.9,7.1s-4.3,2-6.9,2h-10.7c-0.7,0-1.4-0.2-1.9-0.7
		s-0.8-1.1-0.8-1.9v-24.8c0-0.7,0.2-1.4,0.8-1.9c0.5-0.5,1.1-0.7,1.9-0.7h10.8c5.4,0,8.1,2.5,8.1,7.6c0,1.3-0.3,2.4-0.9,3.4
		c-0.6,1-1.5,1.8-2.6,2.3C138.5,886.5,139.7,887.4,140.7,888.6z M134,878.4c-0.6-0.6-1.5-0.9-2.6-0.9H124v7h7.5
		c0.6,0,1.2-0.1,1.7-0.4c1.2-0.6,1.8-1.6,1.8-2.9C134.9,880,134.6,879,134,878.4z M135.8,897.3c0.8-0.8,1.2-1.9,1.2-3.4
		c0-1.8-0.5-3-1.4-3.6c-1-0.6-2.1-0.8-3.5-0.8H124v9h8.4C133.8,898.5,135,898.1,135.8,897.3z"/>
	<path class="st2" d="M169.3,873.9c0.5,0.5,0.7,1.1,0.7,1.9V891c0,2.4-0.5,4.5-1.5,6.4c-1,1.8-2.4,3.3-4.2,4.3s-3.9,1.6-6.2,1.6
		s-4.4-0.5-6.2-1.6c-1.8-1-3.3-2.5-4.3-4.3s-1.5-4-1.5-6.4v-15.2c0-0.7,0.2-1.3,0.7-1.8s1.1-0.7,1.9-0.7c0.6,0,1.2,0.2,1.7,0.7
		s0.7,1.1,0.7,1.8V891c0,1.4,0.3,2.7,0.9,3.8c0.6,1.1,1.4,2,2.5,2.5c1,0.6,2.2,0.9,3.4,0.9c1.3,0,2.5-0.3,3.6-0.9
		c1.1-0.6,2-1.4,2.6-2.5c0.7-1.1,1-2.4,1-3.8v-15.1c0-0.8,0.2-1.4,0.7-1.9c0.4-0.5,1-0.7,1.8-0.7
		C168.2,873.2,168.8,873.5,169.3,873.9z"/>
	<path class="st2" d="M193.2,898.2c0.5,0.5,0.7,1.1,0.7,1.8s-0.2,1.3-0.7,1.8s-1,0.7-1.7,0.7h-13c-0.7,0-1.3-0.2-1.7-0.7
		c-0.5-0.5-0.7-1.1-0.7-1.9v-24.7c0-0.7,0.2-1.4,0.7-1.9s1-0.7,1.8-0.7c0.6,0,1.2,0.2,1.7,0.6c0.6,0.5,0.8,1.2,0.8,2v22.3h10.4
		C192.1,897.5,192.7,897.7,193.2,898.2z"/>
	<path class="st2" d="M217.4,898.1c0.6,0.5,0.9,1.2,0.9,1.9s-0.2,1.3-0.7,1.8s-1,0.7-1.7,0.7h-13.4c-0.5,0-1.1-0.1-1.5-0.5
		c-0.7-0.5-1-1.3-1-2.2v-24.7c0-0.9,0.3-1.6,1-2.2c0.4-0.3,1-0.5,1.5-0.5h13.4c0.7,0,1.3,0.2,1.7,0.7c0.5,0.5,0.7,1.1,0.7,1.8
		s-0.2,1.3-0.7,1.8c-0.5,0.4-1,0.7-1.8,0.7H205v8h9.8c0.8,0,1.4,0.2,1.9,0.7s0.8,1.1,0.8,1.8s-0.2,1.3-0.7,1.8
		c-0.5,0.4-1.1,0.7-1.9,0.7H205v7h10.8C216.4,897.5,217,897.7,217.4,898.1z"/>
	<path class="st2" d="M227.8,902.5c-1.6-0.5-3.1-1.4-4.4-2.6c-0.8-0.7-1.1-1.4-1.1-2.2c0-0.6,0.2-1.2,0.7-1.7s1.1-0.7,1.7-0.7
		c0.5,0,1,0.2,1.4,0.5c1.1,0.9,2.2,1.6,3.3,2s2.3,0.6,3.8,0.6c1.6,0,2.9-0.4,4.1-1.1c1.1-0.7,1.7-1.6,1.7-2.6c0-1.3-0.6-2.3-1.7-3
		c-1.1-0.7-2.9-1.3-5.4-1.6c-6.2-0.9-9.2-3.8-9.2-8.6c0-1.8,0.5-3.3,1.4-4.6s2.2-2.3,3.8-3s3.4-1,5.4-1c1.8,0,3.4,0.3,5,0.8
		s2.9,1.2,3.9,2.1c0.8,0.6,1.2,1.4,1.2,2.2c0,0.6-0.2,1.2-0.7,1.7s-1,0.7-1.7,0.7c-0.4,0-0.8-0.1-1.1-0.4c-0.7-0.6-1.8-1.1-3.1-1.6
		s-2.5-0.7-3.5-0.7c-1.8,0-3.1,0.3-4.1,1s-1.5,1.5-1.5,2.6c0,1.2,0.5,2.1,1.5,2.7c1,0.6,2.6,1.1,4.7,1.5c2.4,0.4,4.4,1,5.8,1.6
		c1.4,0.7,2.5,1.6,3.3,2.7c0.7,1.1,1.1,2.7,1.1,4.5s-0.5,3.3-1.5,4.7c-1,1.3-2.3,2.4-4,3.1c-1.7,0.7-3.4,1.1-5.4,1.1
		C231.2,903.3,229.4,903,227.8,902.5z"/>
	<path class="st2" d="M248.7,901.8c-0.5-0.5-0.7-1.1-0.7-1.9v-0.7c0-0.8,0.2-1.5,0.7-1.9c0.5-0.5,1.1-0.7,2-0.7h0.6
		c0.9,0,1.5,0.2,2,0.7s0.7,1.1,0.7,1.9v0.7c0,0.8-0.2,1.5-0.7,1.9c-0.5,0.5-1.1,0.7-2,0.7h-0.6C249.8,902.5,249.2,902.3,248.7,901.8
		z"/>
	<path class="st2" d="M265,899.5c0,0.5-0.2,1.3-0.6,1.7c-0.5,0.6-1.2,0.9-1.9,0.9s-1.3-0.2-1.8-0.7s-0.7-1-0.7-1.7v-23.1
		c0-0.7,0.2-1.3,0.7-1.7c0.4-0.4,0.9-0.6,1.4-0.7c0.8-0.1,1.7,0.2,2.2,0.8c0.4,0.5,0.6,1,0.6,1.7L265,899.5z"/>
	<path class="st2" d="M296.3,895.7c-1.2,2.3-2.9,4.2-5.1,5.5c-2.2,1.4-4.6,2-7.4,2c-2.7,0-5.2-0.7-7.4-2c-2.2-1.4-3.9-3.2-5.1-5.5
		s-1.8-4.9-1.8-7.7s0.6-5.3,1.8-7.7c1.2-2.3,2.9-4.2,5.1-5.5c2.2-1.4,4.6-2,7.4-2c2.7,0,5.2,0.7,7.4,2c2.2,1.4,3.9,3.2,5.1,5.5
		s1.9,4.9,1.9,7.7S297.6,893.4,296.3,895.7z M291.6,882.9c-0.8-1.5-1.8-2.7-3.2-3.7c-1.4-0.9-2.9-1.4-4.6-1.4s-3.2,0.4-4.6,1.3
		c-1.3,0.9-2.4,2.1-3.1,3.7c-0.7,1.5-1.1,3.3-1.1,5.1c0,1.9,0.4,3.6,1.1,5.1s1.8,2.8,3.1,3.7c1.3,0.9,2.9,1.3,4.6,1.3
		s3.2-0.4,4.6-1.4c1.4-0.9,2.4-2.1,3.2-3.7c0.8-1.5,1.1-3.2,1.1-5.1C292.7,886.2,292.3,884.5,291.6,882.9z"/>
</g>
<g>
	<path class="st2" d="M584.5,1070.5c0.6,0.5,0.9,1.2,0.9,2c0,0.3,0,0.5-0.1,0.8l-8.3,24.5c-0.2,0.5-0.5,0.9-0.9,1.1
		c-0.4,0.3-0.9,0.4-1.4,0.5c-0.5,0-1-0.1-1.4-0.4c-0.5-0.3-0.8-0.7-1.1-1.2l-6-13.6l-6,13.6c-0.3,0.5-0.6,0.9-1.1,1.2
		c-0.4,0.3-0.9,0.4-1.4,0.4s-1-0.2-1.4-0.5s-0.7-0.7-0.9-1.1l-8.3-24.5c-0.1-0.3-0.1-0.6-0.1-0.8c0-0.8,0.3-1.4,0.9-2
		c0.6-0.5,1.2-0.8,1.9-0.8c0.6,0,1.1,0.1,1.5,0.4s0.8,0.7,0.9,1.2l6.3,19.1l5.5-13.2c0.2-0.5,0.5-0.9,1-1.2c0.4-0.3,0.9-0.4,1.4-0.4
		s1,0.1,1.4,0.4s0.7,0.7,0.9,1.2l5.2,13l6.2-18.9c0.2-0.5,0.5-0.9,0.9-1.2c0.5-0.3,1-0.4,1.5-0.4
		C583.3,1069.7,584,1070,584.5,1070.5z"/>
	<path class="st2" d="M606.4,1095.1c0.6,0.5,0.9,1.2,0.9,1.9c0,0.7-0.2,1.3-0.7,1.8s-1,0.7-1.7,0.7h-13.4c-0.5,0-1.1-0.1-1.5-0.5
		c-0.7-0.5-1-1.3-1-2.2v-24.7c0-0.9,0.3-1.6,1-2.2c0.4-0.3,1-0.5,1.5-0.5h13.4c0.7,0,1.3,0.2,1.7,0.7c0.5,0.5,0.7,1.1,0.7,1.8
		c0,0.7-0.2,1.3-0.7,1.8c-0.5,0.4-1,0.7-1.8,0.7H594v7h9.8c0.8,0,1.4,0.2,1.9,0.7s0.8,1.1,0.8,1.8c0,0.7-0.2,1.3-0.7,1.8
		c-0.5,0.4-1.1,0.7-1.9,0.7H594v8h10.8C605.4,1094.5,606,1094.7,606.4,1095.1z"/>
	<path class="st2" d="M635.7,1085.6c1,1.2,1.4,2.8,1.4,4.8c0,3.4-1,5.8-2.9,7.1c-1.9,1.3-4.3,2-6.9,2h-10.7c-0.7,0-1.4-0.2-1.9-0.7
		s-0.7-1.1-0.7-1.9v-24.8c0-0.7,0.2-1.4,0.7-1.9s1.1-0.7,1.9-0.7h10.8c5.4,0,8.1,2.5,8.1,7.6c0,1.3-0.3,2.4-0.9,3.4
		c-0.6,1-1.5,1.8-2.6,2.3C633.5,1083.5,634.7,1084.4,635.7,1085.6z M629,1075.4c-0.6-0.6-1.5-0.9-2.6-0.9H619v7h7.5
		c0.6,0,1.2-0.1,1.7-0.4c1.2-0.6,1.8-1.6,1.8-2.9C629.9,1077,629.6,1076,629,1075.4z M630.8,1093.3c0.8-0.8,1.2-1.9,1.2-3.4
		c0-1.8-0.5-3-1.4-3.6c-1-0.6-2.1-0.8-3.5-0.8H619v9h8.4C628.8,1094.5,630,1094.1,630.8,1093.3z"/>
	<path class="st2" d="M645.1,1099c-1.6-0.5-3.1-1.4-4.4-2.6c-0.8-0.7-1.1-1.4-1.1-2.2c0-0.6,0.2-1.2,0.7-1.7s1.1-0.7,1.7-0.7
		c0.5,0,1,0.2,1.4,0.5c1.1,0.9,2.2,1.6,3.3,2s2.3,0.6,3.8,0.6c1.6,0,2.9-0.4,4.1-1.1c1.1-0.7,1.7-1.6,1.7-2.6c0-1.3-0.6-2.3-1.7-3
		c-1.1-0.7-2.9-1.3-5.4-1.6c-6.2-0.9-9.2-3.8-9.2-8.6c0-1.8,0.5-3.3,1.4-4.6c0.9-1.3,2.2-2.3,3.8-3s3.4-1,5.4-1c1.8,0,3.4,0.3,5,0.8
		s2.9,1.2,3.9,2.1c0.8,0.6,1.2,1.4,1.2,2.2c0,0.6-0.2,1.2-0.7,1.7s-1,0.7-1.7,0.7c-0.4,0-0.8-0.1-1.1-0.4c-0.7-0.6-1.8-1.1-3.1-1.6
		s-2.5-0.7-3.5-0.7c-1.8,0-3.1,0.3-4.1,1s-1.5,1.5-1.5,2.6c0,1.2,0.5,2.1,1.5,2.7s2.6,1.1,4.7,1.5c2.4,0.4,4.4,1,5.8,1.6
		c1.4,0.7,2.5,1.6,3.3,2.7c0.7,1.1,1.1,2.7,1.1,4.5s-0.5,3.3-1.5,4.7c-1,1.3-2.3,2.4-4,3.1s-3.4,1.1-5.4,1.1
		C648.5,1099.8,646.7,1099.5,645.1,1099z"/>
	<path class="st2" d="M686.7,1070.2c0.4,0.5,0.7,1.1,0.7,1.8s-0.2,1.4-0.7,1.8c-0.4,0.4-1,0.7-1.7,0.7h-6v22.9c0,0.5-0.1,1-0.4,1.4
		c-0.5,0.8-1.2,1.1-2.1,1.1c-0.7,0-1.3-0.3-1.8-0.8s-0.7-1.1-0.7-1.9v-22.8h-6c-0.7,0-1.3-0.2-1.7-0.7s-0.7-1.1-0.7-1.8
		c0-0.7,0.2-1.3,0.7-1.8c0.4-0.5,1-0.7,1.7-0.7h17C685.7,1069.5,686.3,1069.7,686.7,1070.2z"/>
	<path class="st2" d="M713.9,1096.9c0,0.7-0.2,1.3-0.7,1.8s-1,0.7-1.6,0.7c-0.5,0-1-0.2-1.4-0.5s-0.7-0.7-0.9-1.3l-2.2-5.1h-12.6
		l-2.2,5.1c-0.2,0.5-0.5,0.9-0.9,1.2c-0.4,0.3-0.9,0.4-1.3,0.4c-0.7,0-1.3-0.2-1.7-0.6s-0.6-0.9-0.6-1.6c0-0.3,0-0.5,0.1-0.8
		l10.5-25.2c0.2-0.6,0.6-1,1-1.3s1-0.4,1.5-0.4s1,0.1,1.4,0.4s0.8,0.7,0.9,1.2l10.4,24.7C713.8,1096.2,713.9,1096.5,713.9,1096.9z
		 M696.5,1087.5h8.4l-4.3-9.9L696.5,1087.5z"/>
	<path class="st2" d="M735.7,1070.2c0.4,0.5,0.7,1.1,0.7,1.8s-0.2,1.4-0.7,1.8c-0.4,0.4-1,0.7-1.7,0.7h-6v22.9c0,0.5-0.1,1-0.4,1.4
		c-0.5,0.8-1.2,1.1-2.1,1.1c-0.7,0-1.3-0.3-1.8-0.8s-0.7-1.1-0.7-1.9v-22.8h-6c-0.7,0-1.3-0.2-1.7-0.7s-0.7-1.1-0.7-1.8
		c0-0.7,0.2-1.3,0.7-1.8c0.4-0.5,1-0.7,1.7-0.7h17C734.7,1069.5,735.3,1069.7,735.7,1070.2z"/>
	<path class="st2" d="M747,1096.1c0,0.5-0.2,1.3-0.6,1.7c-0.5,0.6-1.2,0.9-1.9,0.9s-1.3-0.2-1.8-0.7s-0.7-1-0.7-1.7V1073
		c0-0.7,0.2-1.3,0.7-1.7c0.4-0.4,0.9-0.6,1.4-0.7c0.8-0.1,1.7,0.2,2.2,0.8c0.4,0.5,0.6,1,0.6,1.7L747,1096.1L747,1096.1z"/>
	<path class="st2" d="M778.7,1092.3c-1.2,2.3-2.9,4.2-5.1,5.5c-2.2,1.4-4.6,2-7.4,2c-2.7,0-5.2-0.7-7.4-2c-2.2-1.4-3.9-3.2-5.1-5.5
		c-1.2-2.3-1.8-4.9-1.8-7.7s0.6-5.3,1.8-7.7c1.2-2.3,2.9-4.2,5.1-5.5c2.2-1.4,4.6-2,7.4-2c2.7,0,5.2,0.7,7.4,2
		c2.2,1.4,3.9,3.2,5.1,5.5c1.2,2.3,1.9,4.9,1.9,7.7S780,1089.9,778.7,1092.3z M773.9,1079.5c-0.8-1.5-1.8-2.7-3.2-3.7
		c-1.4-0.9-2.9-1.4-4.6-1.4c-1.7,0-3.2,0.4-4.6,1.3c-1.3,0.9-2.4,2.1-3.1,3.7c-0.7,1.5-1.1,3.3-1.1,5.1c0,1.9,0.4,3.6,1.1,5.1
		c0.7,1.5,1.8,2.8,3.1,3.7s2.9,1.3,4.6,1.3c1.7,0,3.2-0.4,4.6-1.4c1.4-0.9,2.4-2.1,3.2-3.7s1.1-3.2,1.1-5.1
		C775.1,1082.7,774.7,1081,773.9,1079.5z"/>
	<path class="st2" d="M809.4,1070.6c0.4,0.4,0.6,0.9,0.6,1.5v24.7c0,0.7-0.2,1.3-0.7,1.8s-1.1,0.7-1.8,0.7c-0.4,0-0.8-0.1-1.2-0.2
		s-0.7-0.3-0.8-0.5L790,1079v18.2c0,0.6-0.2,1.1-0.6,1.5c-0.4,0.4-0.9,0.6-1.5,0.6s-1.1-0.2-1.4-0.6c-0.4-0.4-0.5-0.9-0.5-1.5v-24.7
		c0-0.7,0.2-1.3,0.7-1.8s1.1-0.7,1.8-0.7c0.4,0,0.8,0.1,1.2,0.3c0.4,0.2,0.7,0.4,0.9,0.7l15.3,19.5V1072c0-0.6,0.2-1.1,0.6-1.5
		c0.4-0.4,0.9-0.6,1.4-0.6C808.6,1070,809.1,1070.2,809.4,1070.6z"/>
</g>
<g>
	<path class="st3" d="M771,168.3c-0.1-10.5-6.6-17.9-16-17.9c-2.6,0-5.3,0.6-7.9,1.7l-116.3,48.4l-0.4-61.7
		c-0.1-9.5-6-16.2-14.6-16.2c-2.3,0-4.8,0.6-7.2,1.5l-119.2,49.5l-0.3-49.3c0-8.5-5.4-14.4-13-14.4c-2,0-4.2,0.5-6.4,1.3L75.1,275.3
		c-8.9,3.7-15.8,14.1-15.7,23.8l1.4,259.1c0,8.5,5.4,14.4,13,14.4c2,0,4.2-0.5,6.4-1.4l42-17.4l0.6,101.5
		c0.1,9.6,6.1,16.2,14.7,16.2h0.3c2.3,0,4.8-0.6,7.2-1.6l50.2-20.9l0.6,105.9c0.1,10.5,6.6,17.8,16,17.8c2.6,0,5.3-0.6,7.9-1.7
		l533.1-221.6c11.4-4.7,20.3-18.3,20.2-30.7L771,168.3z"/>
	<path class="st2" d="M778.8,156.6c-0.1-10.5-6.6-17.9-16-17.9c-2.6,0-5.3,0.6-7.9,1.7l-116.3,48.4l-0.3-61.7
		c-0.1-9.5-6-16.2-14.6-16.2c-2.3,0-4.8,0.6-7.2,1.5l-119.2,49.6l-0.3-49.3c0-8.5-5.4-14.4-13-14.4c-2,0-4.2,0.5-6.4,1.3L82.8,263.5
		c-8.9,3.7-15.8,14.1-15.7,23.8l1.4,259.1c0,8.5,5.4,14.4,13,14.4c2,0,4.2-0.5,6.4-1.4l42-17.4l0.6,101.5
		c0.1,9.6,6.1,16.2,14.7,16.2h0.3c2.3,0,4.8-0.6,7.2-1.6l50.2-20.9l0.6,105.9c0.1,10.5,6.6,17.8,16,17.8c2.6,0,5.3-0.6,7.9-1.7
		l533.1-221.6c11.4-4.7,20.3-18.3,20.2-30.7L778.8,156.6z"/>
	<g>
		<path d="M149.8,312.6l344.7-143.2l-0.3-55.9c0-7.8-5.9-11.8-13-8.9l-394.7,164c-7.2,3-12.9,11.7-12.9,19.7l1.4,258.6
			c0,7.8,5.8,11.7,12.9,8.8l47.6-19.8l-1-199.8C134.3,326.7,141.2,316.2,149.8,312.6z"/>
		<path d="M135.5,535.5l0.6,108.7c0.1,9.4,7,14.1,15.6,10.6l56.8-23.5l-0.6-125.9L135.5,535.5z"/>
		<path d="M635.7,196.3l-0.4-68.3c-0.1-9.3-7-14-15.5-10.5l-125.3,52.1l0.5,85.2L635.7,196.3z"/>
		<path class="st4" d="M206.8,393.7c-0.1-10.6,7.8-22.4,17.4-26.5l269.3-111.9l-0.5-85.6L149.9,312.4c-8.5,3.5-15.4,13.9-15.3,23.4
			l1,200l71.9-29.8L206.8,393.7z"/>
		<path d="M775.1,157.5c-0.1-10.6-7.9-16-17.5-11.9l-121.8,50.6l1.3,239.7c0.1,9.3-6.8,19.8-15.3,23.4L208.5,630.9l0.6,112.6
			c0.1,10.6,7.9,16,17.6,12l532.9-221.4c9.7-4.1,17.4-15.9,17.4-26.5L775.1,157.5z"/>
		<path class="st5" d="M636.6,436l-1.3-239.4l-140.8,58.5l0.6,117.1c0,7.8-5.7,16.7-12.9,19.7L207.4,505.9l0.6,125.1l413.2-171.7
			C629.8,455.7,636.6,445.3,636.6,436z"/>
		<path class="st6" d="M207.4,393.9l0.6,112l274.5-114.1c7.2-3,12.9-11.7,12.9-19.7l-0.6-116.9L224.9,367.3
			C215.2,371.4,207.4,383.2,207.4,393.9z"/>
	</g>
</g>
</svg>
