<?xml version="1.0" encoding="utf-8"?>
<svg version="1.1" id="Layer_1" xmlns="http://www.w3.org/2000/svg" xmlns:xlink="http://www.w3.org/1999/xlink" x="0px" y="0px"
	 width="800px" height="1100px" viewBox="0 0 800 1100" style="enable-background:new 0 0 800 1100;" xml:space="preserve">
<style type="text/css">
	.st0{opacity:0.1;}
	.st1{fill:#FFFFFF;}
	.st2{fill:#BD3B1D;}
	.st3{fill:#59BA47;}
	.st4{fill:#1C63AF;}
</style>
<g class="st0">
	<path d="M405.7,899.9c-5.8,0-10.7,2.2-14.3,6.2c-3.3,3.8-5,8.4-5,13.9v57.3c0,3.2-0.7,5.7-2.1,8.1c-1.4,2.3-3.1,4-5.4,5.2
		c-2.4,1.3-4.9,1.9-7.7,1.9c-2.5,0-4.7-0.6-6.9-1.8c-2.1-1.2-3.6-2.8-4.9-5.1c-1.3-2.4-2-5.1-2-8.3v-57.2c0-5.6-2.1-10.7-6.1-14.5
		c-3.9-3.8-8.8-5.8-14.1-5.8c-5.7,0-10.8,2-14.7,5.8c-4,3.9-6.1,8.9-6.1,14.5v8.5c-0.7-1.7-1.5-3.4-2.4-5
		c-3.8-6.9-8.9-12.5-15.2-16.7c-6.6-4.3-13.7-6.5-21.1-6.5h-36.3c-5.5,0-10.4,2-14.2,5.8c-3.8,3.8-5.8,8.7-5.8,14.2v24.3
		c-1.3-4.3-3-8.4-5.1-12.4c-5.5-10.3-13.2-18.6-22.9-24.6c-9.8-6.1-20.9-9.1-33-9.1c-12.1,0-23.3,3.1-33,9.1
		c-9.7,6-17.4,14.3-22.8,24.6c-0.4,0.7-0.8,1.5-1.1,2.3c-1-3.8-2.4-7.5-4.3-11c-3.8-6.9-8.9-12.5-15.2-16.7
		c-6.6-4.3-13.7-6.5-21.1-6.5H26.4c-5.5,0-10.4,2-14.2,5.8c-3.8,3.8-5.8,8.7-5.8,14.2v91.6c0,5.3,1.8,10.1,5.3,13.9
		c3.7,4,8.6,6.1,14.2,6.1c5.6,0,10.5-2.1,14.2-5.9c3.5-3.7,5.4-8.6,5.4-14.1v-19.6h17.3c7.5,0,14.6-2.2,21.1-6.6
		c5.1-3.4,9.4-7.7,12.8-12.9c0.9,9.4,3.5,18.3,7.8,26.5c5.4,10.3,13.1,18.6,22.8,24.6c9.8,6.1,20.9,9.1,33.1,9.1
		c12.1,0,23.3-3.1,33-9.1c9.7-6,17.4-14.3,22.9-24.6c2.1-4,3.8-8.1,5.1-12.4v24.9c0,5.3,1.8,10.1,5.3,13.9c3.7,4,8.6,6.1,14.2,6.1
		c5.6,0,10.5-2.1,14.2-5.9c3.5-3.7,5.4-8.6,5.4-14.1v-19.6h17.3c7.5,0,14.6-2.2,21.1-6.6c6.3-4.2,11.4-9.8,15.2-16.8
		c0.9-1.6,1.7-3.3,2.3-5v13.1c0,10.5,2.3,20.1,6.8,28.4c4.6,8.5,11.2,15.2,19.6,19.9c8.3,4.7,17.7,7.1,28.1,7.1
		c10.4,0,19.8-2.4,28-7.1c8.3-4.8,14.9-11.5,19.5-19.9c4.5-8.3,6.8-17.8,6.8-28.4v-57.1c0-5.5-1.9-10.4-5.4-14.2
		C416.3,902,411.4,899.9,405.7,899.9z M140.7,980.7c-2.1-4.4-3.2-9.3-3.2-14.8c0-5.5,1.1-10.5,3.2-14.8c2-4.1,4.6-7.3,8.1-9.6
		c3.4-2.2,7-3.3,11.5-3.3c4.3,0,8,1.1,11.4,3.3c3.6,2.4,6.3,5.5,8.3,9.7c2.1,4.3,3.2,9.2,3.2,14.6c0,5.4-1.1,10.4-3.2,14.6
		c-2,4.1-4.8,7.3-8.3,9.7c-3.4,2.3-7,3.3-11.4,3.3c-4.5,0-8.1-1-11.5-3.3C145.4,988,142.7,984.8,140.7,980.7z M61.4,953.4
		c0,0-16.1,0-16.1,0v-14h16.2c0,0,0,0,0,0c0.7,0.6,1.4,1.5,1.9,2.8c0.6,1.4,0.9,2.8,0.9,4.4c0,1.4-0.4,2.7-1,4
		C62.9,951.8,62.2,952.8,61.4,953.4z M276.4,953.4c0,0-16.1,0-16.1,0v-14h16.2c0,0,0,0,0,0c0.7,0.6,1.4,1.5,1.9,2.8
		c0.6,1.4,0.9,2.8,0.9,4.4c0,1.4-0.4,2.7-1,4C277.9,951.8,277.2,952.8,276.4,953.4z"/>
	<path d="M786.8,959.9c-4.1-7.2-9.9-12.9-17.1-17c-3.5-2-7.1-3.5-11-4.5h12.9c5.2,0,9.9-1.9,13.5-5.4c3.7-3.6,5.7-8.3,5.7-13.5
		c0-5.3-1.9-10-5.6-13.6c-3.6-3.6-8.3-5.5-13.6-5.5h-45.7c-5.9,0-11.2,2.3-15.1,6.7c-2.3,2.5-3.8,5.7-4.5,9.3l0,0.3l-2.1,16.8
		c-0.9-4.2-2.4-8.2-4.4-11.9c-3.8-6.8-9.2-12.3-16.2-16.2c-6.8-3.8-14.7-5.7-23.4-5.7c-6.3,0-12.9,1.5-19.5,4.6
		c-6.4,2.9-12,6.9-16.9,11.7c-2.5,2.5-4.4,4.7-5.8,6.9c-1-3.5-3.2-7.4-7.6-11c-4.8-4-10.8-7.3-17.8-9.7c-6.9-2.4-14.3-3.6-22.1-3.6
		c-8.8,0-16.9,1.6-24.2,4.7c-7.8,3.3-14,8.3-18.6,14.7c-1.8,2.6-3.3,5.3-4.4,8.2c-0.4-0.9-0.9-1.8-1.3-2.6
		c-3.8-6.9-8.9-12.5-15.2-16.7c-6.6-4.3-13.7-6.5-21.1-6.5h-36.3c-5.5,0-10.4,2-14.2,5.8c-3.8,3.8-5.8,8.7-5.8,14.2v91.6
		c0,5.3,1.8,10.1,5.3,13.9c3.7,4,8.6,6.1,14.2,6.1c5.6,0,10.5-2.1,14.2-5.9c3.5-3.7,5.4-8.6,5.4-14.1v-19.6h17.3
		c7.5,0,14.6-2.2,21.1-6.6c6.3-4.2,11.4-9.8,15.2-16.8c1.4-2.5,2.5-5.1,3.4-7.8c5.4,10,16.5,19.4,38.7,22.6
		c10.1,1.5,14.4,3.5,16.1,4.6c1.4,0.9,1.5,1.4,1.6,2.3c-0.2,0.2-0.6,0.6-1.5,1.2c-2.6,1.6-5.9,2.4-9.8,2.4c-4.2,0-7.7-0.6-10.5-1.7
		c-3-1.2-6.2-3.2-9.7-6.1c-3.5-2.8-7.4-4.2-11.8-4.2c-5.3,0-10.1,2-13.9,5.9c-3.7,3.8-5.6,8.5-5.6,13.6c0,4.2,1.3,10.4,7.8,16.1
		c6.2,5.5,13,9.4,20.3,11.7c6.9,2.2,14.8,3.3,23.4,3.3c8.6,0,16.7-1.6,24.2-4.9c7.9-3.4,14.3-8.4,19.1-14.8c0.8-1.1,1.5-2.2,2.2-3.3
		c-0.1,1-0.2,2-0.2,3c0,5.3,1.8,9.9,5.2,13.5c2.5,2.6,6.9,5.8,14,5.8h53.7c5.2,0,9.9-1.9,13.5-5.4c1.9-1.9,3.4-4,4.3-6.4
		c0.9,1.2,1.9,2.2,3,3.1c3.8,3.1,8.6,5.5,14.3,7.1c5.3,1.5,10.5,2.3,15.6,2.3c9.4,0,18.2-2.2,26.3-6.5c8.1-4.3,14.7-10.3,19.7-17.7
		c5.1-7.7,7.7-16.2,7.7-25.3C793,975.1,790.9,967.1,786.8,959.9z M722.8,981.2c2.4,0,4.8-0.4,7.1-1.3c1.4-0.5,3.2-1.3,5.3-2.4
		c2.2-1.1,4.1-1.9,5.6-2.4c0.6-0.2,1.6-0.4,3.2-0.4c2.8,0,4.9,0.8,6.9,2.7c1.8,1.6,2.5,3.5,2.5,6.3c0,1.8-0.5,3.5-1.6,5.1
		c-1.3,2-3,3.5-5.3,4.7c-2.3,1.2-4.7,1.8-7.4,1.8c-1,0-3.1-0.6-6-2.4c-4.6-3.2-8.7-4.7-12.8-4.7c-5.2,0-9.9,1.8-13.4,5.1
		c-2.4,2.2-3.8,4.5-4.6,6.7c0,0-0.1-0.1-0.1-0.1c-3.6-3.6-8.3-5.5-13.6-5.5h-8.7l3.7-4c6.4-6.9,11.6-14.3,15.5-21.9
		c0.9-1.7,1.6-3.4,2.3-5.2c0.6,3.9,2.1,7.5,4.5,10.6C708.5,977.3,713.6,981.2,722.8,981.2z M484.4,953.4c0,0-16.1,0-16.1,0v-14h16.2
		c0,0,0,0,0,0c0.7,0.6,1.4,1.5,1.9,2.8c0.6,1.4,0.9,2.8,0.9,4.4c0,1.4-0.4,2.7-1,4C485.8,951.8,485.2,952.8,484.4,953.4z
		 M615.6,967.2c-3.8-5.9-9.4-10.6-16.7-13.9c-6.2-2.8-14.4-5.1-24.2-6.9c-8.8-1.6-12.6-3.4-14.1-4.3c-0.6-0.4-0.7-0.5-0.7-1.5
		c0-0.3,0-0.4,0-0.4c0,0,0.1-0.3,0.9-0.8c1.1-0.7,3.7-1.9,9.6-1.9c2.6,0,5.9,0.7,9.6,2.1c4.8,1.8,7.3,3.4,8.7,4.5l0.2,0.2
		c3.1,2.3,6.6,3.5,10.5,3.5c5.2,0,10-2,13.7-5.9c0.8-0.9,1.6-1.8,2.2-2.7c0.9,2.6,2.5,5.4,5.4,8.1c3.8,3.5,8.5,5.4,13.4,5.4
		c6.2,0,11.7-2.8,15.5-7.9c1.8-2.4,3.8-4.3,5.9-5.7c1.4-0.9,2.6-1.4,3.6-1.4c1.2,0,2.5,0.3,4.3,2.1c1.5,1.5,2.1,3.1,2.1,5.1
		c0,1.3-0.4,3.5-2.2,6.9c-1.8,3.5-4.4,7-7.7,10.5L621.3,999c-0.5,0.5-1,1.1-1.4,1.6c0.9-3.5,1.4-7.1,1.4-10.9
		C621.3,980.7,619.4,973.1,615.6,967.2z"/>
</g>
<path d="M26.7,1021.1c-4.1,0-7.8-1.6-10.5-4.5c-2.6-2.8-3.9-6.4-3.9-10.5v-91.6c0-4.1,1.5-7.8,4.4-10.7c2.8-2.8,6.5-4.3,10.7-4.3
	h36.3c6.5,0,12.6,1.9,18.4,5.7c5.6,3.7,10.1,8.7,13.5,14.9c3.4,6.2,5.1,13.1,5.1,20.4c0,7.2-1.7,14-5.1,20.3
	c-3.4,6.3-7.9,11.3-13.5,15c-5.7,3.8-11.9,5.7-18.4,5.7H41.3v24.6c0,4.2-1.3,7.8-4,10.6C34.6,1019.6,30.9,1021.1,26.7,1021.1z
	 M63.2,952.5c0.8,0,1.8-0.7,2.4-1.2c1.3-1.1,2.4-2.6,3.2-4.5c0.9-1.9,1.4-3.9,1.4-6c0.1-2.3-0.4-4.5-1.3-6.6
	c-0.9-1.9-1.9-3.4-3.3-4.5c-0.9-0.8-1.8-1.2-2.5-1.2H41.3v24H63.2z"/>
<path d="M161.3,1022.3c-11.2,0-21.4-2.8-30.4-8.4c-9-5.5-16-13.2-21.1-22.7c-5-9.4-7.5-19.9-7.5-31.2c0-11.3,2.5-21.8,7.5-31.2
	c5-9.5,12.1-17.1,21.1-22.7c9-5.6,19.2-8.4,30.4-8.4c11.2,0,21.4,2.8,30.4,8.4c8.9,5.5,16.1,13.2,21.1,22.7c5,9.4,7.6,20,7.6,31.2
	c0,11.3-2.6,21.8-7.6,31.2c-5.1,9.5-12.2,17.1-21.1,22.7C182.7,1019.4,172.4,1022.3,161.3,1022.3z M161.3,927.3
	c-5.4,0-10.1,1.3-14.2,4.1c-4.2,2.8-7.5,6.6-9.9,11.6c-2.4,5-3.7,10.8-3.7,17c0,6.2,1.2,12,3.7,17c2.4,5,5.6,8.8,9.9,11.6
	c4.2,2.8,8.8,4.1,14.2,4.1c5.3,0,9.9-1.4,14.1-4.2c4.3-2.9,7.6-6.7,10.1-11.6c2.5-5,3.7-10.7,3.7-16.9c0-6.2-1.3-11.9-3.7-16.9
	c-2.4-4.9-5.7-8.7-10.1-11.6C171.2,928.7,166.6,927.3,161.3,927.3z"/>
<path d="M241.7,1021.1c-4.1,0-7.8-1.6-10.5-4.5c-2.6-2.8-3.9-6.4-3.9-10.5v-91.6c0-4.1,1.5-7.8,4.4-10.7c2.8-2.8,6.5-4.3,10.7-4.3
	h36.3c6.5,0,12.6,1.9,18.4,5.7c5.6,3.7,10.1,8.7,13.5,14.9c3.4,6.2,5.1,13.1,5.1,20.4c0,7.2-1.7,14-5.1,20.3
	c-3.4,6.3-7.9,11.3-13.5,15c-5.7,3.8-11.9,5.7-18.4,5.7h-22.3v24.6c0,4.2-1.3,7.8-4,10.6C249.6,1019.6,245.9,1021.1,241.7,1021.1z
	 M278.2,952.5c0.8,0,1.8-0.7,2.4-1.2c1.3-1.1,2.4-2.6,3.2-4.5c0.9-1.9,1.4-3.9,1.4-6c0.1-2.3-0.4-4.5-1.3-6.6
	c-0.9-1.9-1.9-3.4-3.3-4.5c-0.9-0.8-1.8-1.2-2.5-1.2h-21.9v24H278.2z"/>
<path d="M371.9,1021.6c-9.5,0-18.1-2.2-25.6-6.4c-7.6-4.3-13.5-10.4-17.7-18c-4.1-7.5-6.2-16.3-6.2-26v-57c0-4.3,1.6-8.1,4.6-11
	c3-2.9,6.8-4.4,11.3-4.4c4,0,7.7,1.5,10.6,4.4c3,2.9,4.6,6.7,4.6,11v57.2c0,4.1,0.9,7.6,2.6,10.8c1.7,3.1,4,5.4,6.8,7
	c2.9,1.6,6,2.4,9.4,2.4c3.6,0,6.9-0.8,10.1-2.5c3.1-1.6,5.5-3.9,7.3-7c1.9-3.1,2.8-6.6,2.8-10.6v-57.3c0-4.2,1.3-7.8,3.7-10.6
	c2.6-3,6.3-4.5,10.6-4.5c4.2,0,7.9,1.5,10.6,4.4c2.7,2.8,4,6.5,4,10.7v57.1c0,9.7-2.1,18.4-6.2,26c-4.2,7.6-10.1,13.7-17.6,18
	C390,1019.4,381.4,1021.6,371.9,1021.6z"/>
<path d="M449.7,1021.1c-4.1,0-7.8-1.6-10.5-4.5c-2.6-2.8-3.9-6.4-3.9-10.5v-91.6c0-4.1,1.5-7.8,4.4-10.7c2.8-2.8,6.6-4.3,10.7-4.3
	h36.3c6.5,0,12.6,1.9,18.4,5.7c5.6,3.7,10.1,8.7,13.5,14.9c3.4,6.2,5.1,13.1,5.1,20.4c0,7.2-1.7,14-5.1,20.3
	c-3.4,6.3-7.9,11.3-13.5,15c-5.7,3.8-11.9,5.7-18.4,5.7h-22.3v24.6c0,4.2-1.3,7.8-4,10.6C457.6,1019.6,453.9,1021.1,449.7,1021.1z
	 M486.2,952.5c0.8,0,1.8-0.7,2.4-1.2c1.3-1.1,2.4-2.6,3.2-4.4c0.9-1.9,1.4-3.9,1.4-6c0.1-2.3-0.4-4.5-1.3-6.6
	c-0.9-1.9-1.9-3.4-3.3-4.5c-0.9-0.8-1.8-1.2-2.5-1.2h-21.9v24H486.2z"/>
<path d="M571.3,1022.3c-8.1,0-15.5-1-21.9-3.1c-6.6-2.1-12.8-5.7-18.5-10.7c-5-4.5-6.1-9.2-6.1-12.4c0-3.8,1.5-7.3,4.2-10.1
	c2.8-2.9,6.3-4.4,10.3-4.4c3.2,0,6.2,1,8.7,3.1c3.8,3.2,7.5,5.4,11,6.8c3.4,1.3,7.5,2,12.3,2c4.9,0,9-1,12.5-3.2
	c3.9-2.4,3.9-4.5,3.9-5.3c0-2.9-1.2-5-3.9-6.7c-2.5-1.6-7.6-3.8-18-5.3c-32.4-4.7-39.2-23-39.2-37.5c0-7.7,2.1-14.6,6.2-20.4
	c4-5.7,9.6-10.1,16.5-13c6.7-2.9,14.1-4.3,22.2-4.3c7.2,0,14.1,1.1,20.5,3.3c6.4,2.2,11.9,5.2,16.3,8.8c5.4,4.3,6.5,9.2,6.5,12.5
	c0,3.8-1.5,7.3-4.2,10.1c-2.8,2.9-6.3,4.4-10.1,4.4c-2.8,0-5.3-0.8-7.5-2.5l-0.1-0.1c-2.3-1.8-5.7-3.6-10-5.3
	c-4.3-1.6-8.1-2.4-11.3-2.4c-5.5,0-9.7,0.9-12.4,2.8c-2.8,1.9-3.1,3.8-3.1,5.3c0,2.7,0.9,4.4,3.1,5.8c2.2,1.3,6.7,3.3,15.8,5
	c9.4,1.6,17.2,3.8,23,6.5c6.4,2.9,11.2,7,14.5,12.1c3.3,5.1,5,11.8,5,19.9c0,7.8-2.2,14.7-6.7,20.7c-4.3,5.7-10,10.2-17.1,13.3
	C586.6,1020.8,579.1,1022.3,571.3,1022.3z"/>
<path class="st1" d="M635.7,1021.5c-5.3,0-8.6-2.3-10.4-4.2c-2.5-2.7-3.8-6.2-3.8-10.1c0-4,1.5-7.6,4.3-10.6l34.4-36.8
	c3.5-3.8,6.4-7.7,8.4-11.6c1.8-3.5,2.8-6.6,2.8-9.3c0-3.3-1.2-6.2-3.6-8.6c-2.4-2.5-4.9-3.6-7.9-3.6c-2,0-4.1,0.7-6.3,2.2
	c-2.6,1.7-5,4-7.1,6.9c-2.9,3.9-6.9,5.9-11.5,5.9c-3.7,0-7-1.4-10-4.1c-3.8-3.5-4.6-7.3-4.6-9.9c0-2.6,0.8-5.2,2.4-7.7
	c1.3-2,3-4.1,5.4-6.5c4.4-4.4,9.6-8,15.4-10.7c5.9-2.7,11.8-4.1,17.4-4.1c7.8,0,14.9,1.7,20.9,5.1c6.1,3.4,10.9,8.2,14.2,14.2
	c3.3,5.9,4.9,12.7,4.9,20.1c0,7.2-1.9,14.7-5.7,22.2c-3.6,7.2-8.6,14.2-14.7,20.7l-11.7,12.4h20.3c3.9,0,7.4,1.4,10.1,4.1
	c2.7,2.7,4.1,6.2,4.1,10.1c0,3.8-1.4,7.3-4.1,9.9c-2.7,2.6-6.1,3.9-10,3.9H635.7z"/>
<path class="st1" d="M740.1,1022.3c-4.6,0-9.4-0.7-14.2-2.1c-5-1.5-9.2-3.5-12.5-6.2c-2-1.6-3.5-3.8-4.7-6.4
	c-1.1-2.6-1.7-5.1-1.7-7.5c0-2.3,0.7-5.8,4.1-9c2.6-2.4,6.1-3.7,10-3.7c3,0,6.3,1.3,10,3.9c3.4,2.1,6.5,3.2,8.8,3.2
	c3.5,0,6.6-0.8,9.7-2.4c3-1.6,5.4-3.7,7.2-6.3c1.7-2.5,2.5-5.1,2.5-7.9c0-4.2-1.3-7.4-4.1-10c-2.9-2.7-6.3-4-10.3-4
	c-1.8,0-3.5,0.2-4.8,0.7c-1.7,0.6-3.8,1.4-6.2,2.6c-2,1-3.7,1.8-4.9,2.2c-1.7,0.6-3.5,1-5.3,1c-5.8,0-10.2-1.8-12.9-5.3
	c-2.5-3.2-3.7-6.9-3.7-11.2c0-1.3,0.1-2.3,0.2-3.1l4.9-39.1l0-0.1c0.5-2.5,1.6-5,3.3-6.9c3-3.4,6.9-5.1,11.4-5.1h45.7
	c3.9,0,7.4,1.4,10.1,4.1c2.7,2.7,4.1,6.2,4.1,10.1c0,3.8-1.4,7.3-4.1,9.9c-2.7,2.6-6.1,3.9-10,3.9H738l-1.3,9.6
	c3.4-0.8,6.7-1.2,9.9-1.2c7.8,0,15.1,1.9,21.5,5.5c6.4,3.7,11.6,8.8,15.2,15.2c3.7,6.4,5.5,13.5,5.5,21.3c0,8.1-2.3,15.7-6.9,22.5
	c-4.5,6.7-10.5,12.1-17.9,16C756.7,1020.3,748.7,1022.3,740.1,1022.3z"/>
<g>
	<path class="st1" d="M37.3,868.2c0.4,0.5,0.7,1.1,0.7,1.8v8.8c0,1-0.4,1.7-1.2,2.3c-2.1,1.4-4.3,2.2-6.6,2.5
		c-3.3,0.4-6.7-0.5-9.5-2.5c-1.8-1.3-3.2-2.9-4.3-4.9c-1.3-2.3-1.9-4.8-1.9-7.5c0-2.7,0.6-5.2,1.9-7.5c1.6-3,4-5.1,7.1-6.5
		c1.2-0.5,2.4-0.8,3.7-0.9c3.1-0.2,5.7,0.3,7.9,1.6c0.4,0.2,0.7,0.5,0.9,0.9c0.2,0.4,0.3,0.8,0.3,1.2c0,0.7-0.2,1.3-0.6,1.8
		c-0.4,0.5-0.9,0.8-1.6,0.8c-0.4,0-0.8-0.1-1.3-0.3c-1.4-0.6-2.8-1-4.3-1c-1.6,0-3.2,0.5-4.5,1.4c-1.4,0.9-2.5,2.1-3.3,3.6
		c-0.8,1.5-1.2,3.2-1.2,5c0,1.8,0.4,3.5,1.2,5c0.8,1.5,1.9,2.7,3.3,3.6c1.4,0.9,2.9,1.4,4.5,1.4c0.7,0,1.5-0.1,2.3-0.2
		c0.8-0.1,1.5-0.3,2.2-0.5v-5.4h-3.6c-0.7,0-1.2-0.2-1.7-0.7c-0.4-0.5-0.7-1.1-0.7-1.8c0-0.7,0.2-1.3,0.7-1.8c0.4-0.5,1-0.7,1.7-0.7
		h6.3C36.3,867.5,36.9,867.7,37.3,868.2z"/>
	<path class="st1" d="M60.2,878.2c0.5,0.5,0.7,1.1,0.7,1.8c0,0.7-0.2,1.3-0.7,1.8c-0.5,0.5-1,0.7-1.7,0.7h-13
		c-0.7,0-1.3-0.2-1.7-0.7c-0.5-0.5-0.7-1.1-0.7-1.9v-24.7c0-0.7,0.2-1.4,0.7-1.9c0.5-0.5,1-0.7,1.8-0.7c0.6,0,1.2,0.2,1.7,0.6
		c0.6,0.5,0.8,1.2,0.8,2v22.3h10.4C59.1,877.5,59.7,877.7,60.2,878.2z"/>
	<path class="st1" d="M91.8,875.7c-1.2,2.3-2.9,4.2-5.1,5.5c-2.2,1.4-4.6,2-7.4,2c-2.7,0-5.2-0.7-7.4-2c-2.2-1.4-3.9-3.2-5.1-5.5
		c-1.2-2.3-1.8-4.9-1.8-7.7s0.6-5.3,1.8-7.7c1.2-2.3,2.9-4.2,5.1-5.5c2.2-1.4,4.6-2,7.4-2c2.7,0,5.2,0.7,7.4,2
		c2.2,1.4,3.9,3.2,5.1,5.5c1.2,2.3,1.9,4.9,1.9,7.7S93,873.4,91.8,875.7z M87,862.9c-0.8-1.5-1.8-2.7-3.2-3.7
		c-1.4-0.9-2.9-1.4-4.6-1.4c-1.7,0-3.2,0.4-4.6,1.3c-1.3,0.9-2.4,2.1-3.1,3.7s-1.1,3.3-1.1,5.1c0,1.9,0.4,3.6,1.1,5.1
		c0.7,1.5,1.8,2.8,3.1,3.7c1.3,0.9,2.9,1.3,4.6,1.3c1.7,0,3.2-0.4,4.6-1.4c1.4-0.9,2.4-2.1,3.2-3.7s1.1-3.2,1.1-5.1
		C88.1,866.2,87.8,864.5,87,862.9z"/>
	<path class="st1" d="M120.7,868.6c1,1.2,1.4,2.8,1.4,4.8c0,3.4-1,5.8-2.9,7.1c-1.9,1.3-4.3,2-6.9,2h-10.7c-0.7,0-1.4-0.2-1.9-0.7
		c-0.5-0.5-0.8-1.1-0.8-1.9v-24.8c0-0.7,0.2-1.4,0.8-1.9c0.5-0.5,1.1-0.7,1.9-0.7h10.8c5.4,0,8.1,2.5,8.1,7.6c0,1.3-0.3,2.4-0.9,3.4
		c-0.6,1-1.5,1.8-2.6,2.3C118.5,866.5,119.7,867.4,120.7,868.6z M114,858.4c-0.6-0.6-1.5-0.9-2.6-0.9H104v7h7.5
		c0.6,0,1.2-0.1,1.7-0.4c1.2-0.6,1.8-1.6,1.8-2.9C114.9,860,114.6,859,114,858.4z M115.8,877.3c0.8-0.8,1.2-1.9,1.2-3.4
		c0-1.8-0.5-3-1.4-3.6c-1-0.6-2.1-0.8-3.5-0.8H104v9h8.4C113.8,878.5,115,878.1,115.8,877.3z"/>
	<path class="st1" d="M149.3,853.9c0.5,0.5,0.7,1.1,0.7,1.9V871c0,2.4-0.5,4.5-1.5,6.4c-1,1.8-2.4,3.3-4.2,4.3
		c-1.8,1-3.9,1.6-6.2,1.6c-2.3,0-4.4-0.5-6.2-1.6c-1.8-1-3.3-2.5-4.3-4.3c-1-1.8-1.5-4-1.5-6.4v-15.2c0-0.7,0.2-1.3,0.7-1.8
		c0.5-0.5,1.1-0.7,1.9-0.7c0.6,0,1.2,0.2,1.7,0.7c0.5,0.5,0.7,1.1,0.7,1.8v15.2c0,1.4,0.3,2.7,0.9,3.8c0.6,1.1,1.4,2,2.5,2.5
		c1,0.6,2.2,0.9,3.4,0.9c1.3,0,2.5-0.3,3.6-0.9c1.1-0.6,2-1.4,2.6-2.5c0.7-1.1,1-2.4,1-3.8v-15.1c0-0.8,0.2-1.4,0.7-1.9
		c0.4-0.5,1-0.7,1.8-0.7C148.2,853.2,148.8,853.5,149.3,853.9z"/>
	<path class="st1" d="M173.2,878.2c0.5,0.5,0.7,1.1,0.7,1.8c0,0.7-0.2,1.3-0.7,1.8c-0.5,0.5-1,0.7-1.7,0.7h-13
		c-0.7,0-1.3-0.2-1.7-0.7c-0.5-0.5-0.7-1.1-0.7-1.9v-24.7c0-0.7,0.2-1.4,0.7-1.9c0.5-0.5,1-0.7,1.8-0.7c0.6,0,1.2,0.2,1.7,0.6
		c0.6,0.5,0.8,1.2,0.8,2v22.3h10.4C172.1,877.5,172.7,877.7,173.2,878.2z"/>
	<path class="st1" d="M197.4,878.1c0.6,0.5,0.9,1.2,0.9,1.9c0,0.7-0.2,1.3-0.7,1.8c-0.5,0.5-1,0.7-1.7,0.7h-13.4
		c-0.5,0-1.1-0.1-1.5-0.5c-0.7-0.5-1-1.3-1-2.2v-24.7c0-0.9,0.3-1.6,1-2.2c0.4-0.3,1-0.5,1.5-0.5l13.4,0c0.7,0,1.3,0.2,1.7,0.7
		c0.5,0.5,0.7,1.1,0.7,1.8c0,0.7-0.2,1.3-0.7,1.8c-0.5,0.4-1,0.7-1.8,0.7H185v8h9.8c0.8,0,1.4,0.2,1.9,0.7c0.5,0.5,0.8,1.1,0.8,1.8
		c0,0.7-0.2,1.3-0.7,1.8c-0.5,0.4-1.1,0.7-1.9,0.7H185v7h10.8C196.4,877.5,197,877.7,197.4,878.1z"/>
	<path class="st1" d="M207.8,882.5c-1.6-0.5-3.1-1.4-4.4-2.6c-0.8-0.7-1.1-1.4-1.1-2.2c0-0.6,0.2-1.2,0.7-1.7
		c0.5-0.5,1.1-0.7,1.7-0.7c0.5,0,1,0.2,1.4,0.5c1.1,0.9,2.2,1.6,3.3,2c1.1,0.4,2.3,0.6,3.8,0.6c1.6,0,2.9-0.4,4.1-1.1
		c1.1-0.7,1.7-1.6,1.7-2.6c0-1.3-0.6-2.3-1.7-3c-1.1-0.7-2.9-1.3-5.4-1.6c-6.2-0.9-9.2-3.8-9.2-8.6c0-1.8,0.5-3.3,1.4-4.6
		c0.9-1.3,2.2-2.3,3.8-3c1.6-0.7,3.4-1,5.4-1c1.8,0,3.4,0.3,5,0.8c1.6,0.5,2.9,1.2,3.9,2.1c0.8,0.6,1.2,1.4,1.2,2.2
		c0,0.6-0.2,1.2-0.7,1.7c-0.5,0.5-1,0.7-1.7,0.7c-0.4,0-0.8-0.1-1.1-0.4c-0.7-0.6-1.8-1.1-3.1-1.6c-1.3-0.5-2.5-0.7-3.5-0.7
		c-1.8,0-3.1,0.3-4.1,1s-1.5,1.5-1.5,2.6c0,1.2,0.5,2.1,1.5,2.7c1,0.6,2.6,1.1,4.7,1.5c2.4,0.4,4.4,1,5.8,1.6
		c1.4,0.7,2.5,1.6,3.3,2.7c0.7,1.1,1.1,2.7,1.1,4.5c0,1.8-0.5,3.3-1.5,4.7c-1,1.3-2.3,2.4-4,3.1c-1.7,0.7-3.4,1.1-5.4,1.1
		C211.2,883.3,209.4,883,207.8,882.5z"/>
	<path class="st1" d="M228.7,881.8c-0.5-0.5-0.7-1.1-0.7-1.9v-0.7c0-0.8,0.2-1.5,0.7-1.9c0.5-0.5,1.1-0.7,2-0.7h0.6
		c0.9,0,1.5,0.2,2,0.7c0.5,0.5,0.7,1.1,0.7,1.9v0.7c0,0.8-0.2,1.5-0.7,1.9c-0.5,0.5-1.1,0.7-2,0.7h-0.6
		C229.8,882.5,229.2,882.3,228.7,881.8z"/>
	<path class="st1" d="M245,879.5c0,0.5-0.2,1.3-0.6,1.7c-0.5,0.6-1.2,0.9-1.9,0.9c-0.7,0-1.3-0.2-1.8-0.7c-0.5-0.5-0.7-1-0.7-1.7
		v-23.1c0-0.7,0.2-1.3,0.7-1.7c0.4-0.4,0.9-0.6,1.4-0.7c0.8-0.1,1.7,0.2,2.2,0.8c0.4,0.5,0.6,1,0.6,1.7L245,879.5z"/>
	<path class="st1" d="M276.3,875.7c-1.2,2.3-2.9,4.2-5.1,5.5c-2.2,1.4-4.6,2-7.4,2c-2.7,0-5.2-0.7-7.4-2c-2.2-1.4-3.9-3.2-5.1-5.5
		c-1.2-2.3-1.8-4.9-1.8-7.7s0.6-5.3,1.8-7.7c1.2-2.3,2.9-4.2,5.1-5.5c2.2-1.4,4.6-2,7.4-2c2.7,0,5.2,0.7,7.4,2
		c2.2,1.4,3.9,3.2,5.1,5.5c1.2,2.3,1.9,4.9,1.9,7.7S277.6,873.4,276.3,875.7z M271.6,862.9c-0.8-1.5-1.8-2.7-3.2-3.7
		c-1.4-0.9-2.9-1.4-4.6-1.4c-1.7,0-3.2,0.4-4.6,1.3c-1.3,0.9-2.4,2.1-3.1,3.7c-0.7,1.5-1.1,3.3-1.1,5.1c0,1.9,0.4,3.6,1.1,5.1
		c0.7,1.5,1.8,2.8,3.1,3.7c1.3,0.9,2.9,1.3,4.6,1.3c1.7,0,3.2-0.4,4.6-1.4c1.4-0.9,2.4-2.1,3.2-3.7c0.8-1.5,1.1-3.2,1.1-5.1
		C272.7,866.2,272.3,864.5,271.6,862.9z"/>
</g>
<g>
	<path class="st1" d="M564.5,1050.5c0.6,0.5,0.9,1.2,0.9,2c0,0.3,0,0.5-0.1,0.8l-8.3,24.5c-0.2,0.5-0.5,0.9-0.9,1.1
		c-0.4,0.3-0.9,0.4-1.4,0.5c-0.5,0-1-0.1-1.4-0.4c-0.5-0.3-0.8-0.7-1.1-1.2l-6-13.6l-6,13.6c-0.3,0.5-0.6,0.9-1.1,1.2
		c-0.4,0.3-0.9,0.4-1.4,0.4c-0.5,0-1-0.2-1.4-0.5c-0.4-0.3-0.7-0.7-0.9-1.1l-8.3-24.5c-0.1-0.3-0.1-0.6-0.1-0.8c0-0.8,0.3-1.4,0.9-2
		c0.6-0.5,1.2-0.8,1.9-0.8c0.6,0,1.1,0.1,1.5,0.4c0.4,0.3,0.8,0.7,0.9,1.2l6.3,19.1l5.5-13.2c0.2-0.5,0.5-0.9,1-1.2
		c0.4-0.3,0.9-0.4,1.4-0.4c0.5,0,1,0.1,1.4,0.4c0.4,0.3,0.7,0.7,0.9,1.2l5.2,13l6.2-18.9c0.2-0.5,0.5-0.9,0.9-1.2
		c0.5-0.3,1-0.4,1.5-0.4C563.3,1049.7,564,1050,564.5,1050.5z"/>
	<path class="st1" d="M586.4,1075.1c0.6,0.5,0.9,1.2,0.9,1.9c0,0.7-0.2,1.3-0.7,1.8c-0.5,0.5-1,0.7-1.7,0.7h-13.4
		c-0.5,0-1.1-0.1-1.5-0.5c-0.7-0.5-1-1.3-1-2.2v-24.7c0-0.9,0.3-1.6,1-2.2c0.4-0.3,1-0.5,1.5-0.5h13.4c0.7,0,1.3,0.2,1.7,0.7
		c0.5,0.5,0.7,1.1,0.7,1.8c0,0.7-0.2,1.3-0.7,1.8c-0.5,0.4-1,0.7-1.8,0.7H574v7h9.8c0.8,0,1.4,0.2,1.9,0.7c0.5,0.5,0.8,1.1,0.8,1.8
		c0,0.7-0.2,1.3-0.7,1.8c-0.5,0.4-1.1,0.7-1.9,0.7H574v8h10.8C585.4,1074.5,586,1074.7,586.4,1075.1z"/>
	<path class="st1" d="M615.7,1065.6c1,1.2,1.4,2.8,1.4,4.8c0,3.4-1,5.8-2.9,7.1c-1.9,1.3-4.3,2-6.9,2h-10.7c-0.7,0-1.4-0.2-1.9-0.7
		c-0.5-0.5-0.7-1.1-0.7-1.9v-24.8c0-0.7,0.2-1.4,0.7-1.9c0.5-0.5,1.1-0.7,1.9-0.7h10.8c5.4,0,8.1,2.5,8.1,7.6c0,1.3-0.3,2.4-0.9,3.4
		c-0.6,1-1.5,1.8-2.6,2.3C613.5,1063.5,614.7,1064.4,615.7,1065.6z M609,1055.4c-0.6-0.6-1.5-0.9-2.6-0.9H599v7l7.5,0
		c0.6,0,1.2-0.1,1.7-0.4c1.2-0.6,1.8-1.6,1.8-2.9C609.9,1057,609.6,1056,609,1055.4z M610.8,1073.3c0.8-0.8,1.2-1.9,1.2-3.4
		c0-1.8-0.5-3-1.4-3.6c-1-0.6-2.1-0.8-3.5-0.8H599v9h8.4C608.8,1074.5,610,1074.1,610.8,1073.3z"/>
	<path class="st1" d="M625.1,1079c-1.6-0.5-3.1-1.4-4.4-2.6c-0.8-0.7-1.1-1.4-1.1-2.2c0-0.6,0.2-1.2,0.7-1.7
		c0.5-0.5,1.1-0.7,1.7-0.7c0.5,0,1,0.2,1.4,0.5c1.1,0.9,2.2,1.6,3.3,2c1.1,0.4,2.3,0.6,3.8,0.6c1.6,0,2.9-0.4,4.1-1.1
		c1.1-0.7,1.7-1.6,1.7-2.6c0-1.3-0.6-2.3-1.7-3c-1.1-0.7-2.9-1.3-5.4-1.6c-6.2-0.9-9.2-3.8-9.2-8.6c0-1.8,0.5-3.3,1.4-4.6
		c0.9-1.3,2.2-2.3,3.8-3c1.6-0.7,3.4-1,5.4-1c1.8,0,3.4,0.3,5,0.8c1.6,0.5,2.9,1.2,3.9,2.1c0.8,0.6,1.2,1.4,1.2,2.2
		c0,0.6-0.2,1.2-0.7,1.7c-0.5,0.5-1,0.7-1.7,0.7c-0.4,0-0.8-0.1-1.1-0.4c-0.7-0.6-1.8-1.1-3.1-1.6c-1.3-0.5-2.5-0.7-3.5-0.7
		c-1.8,0-3.1,0.3-4.1,1c-1,0.7-1.5,1.5-1.5,2.6c0,1.2,0.5,2.1,1.5,2.7c1,0.6,2.6,1.1,4.7,1.5c2.4,0.4,4.4,1,5.8,1.6
		c1.4,0.7,2.5,1.6,3.3,2.7c0.7,1.1,1.1,2.7,1.1,4.5c0,1.8-0.5,3.3-1.5,4.7c-1,1.3-2.3,2.4-4,3.1c-1.7,0.7-3.4,1.1-5.4,1.1
		C628.5,1079.8,626.7,1079.5,625.1,1079z"/>
	<path class="st1" d="M666.7,1050.2c0.4,0.5,0.7,1.1,0.7,1.8s-0.2,1.4-0.7,1.8c-0.4,0.4-1,0.7-1.7,0.7h-6v22.9c0,0.5-0.1,1-0.4,1.4
		c-0.5,0.8-1.2,1.1-2.1,1.1c-0.7,0-1.3-0.3-1.8-0.8c-0.5-0.5-0.7-1.1-0.7-1.9v-22.8h-6c-0.7,0-1.3-0.2-1.7-0.7
		c-0.4-0.5-0.7-1.1-0.7-1.8c0-0.7,0.2-1.3,0.7-1.8c0.4-0.5,1-0.7,1.7-0.7H665C665.7,1049.5,666.3,1049.7,666.7,1050.2z"/>
	<path class="st1" d="M693.9,1076.9c0,0.7-0.2,1.3-0.7,1.8c-0.5,0.5-1,0.7-1.6,0.7c-0.5,0-1-0.2-1.4-0.5c-0.4-0.3-0.7-0.7-0.9-1.3
		l-2.2-5.1h-12.6l-2.2,5.1c-0.2,0.5-0.5,0.9-0.9,1.2c-0.4,0.3-0.9,0.4-1.3,0.4c-0.7,0-1.3-0.2-1.7-0.6c-0.4-0.4-0.6-0.9-0.6-1.6
		c0-0.3,0-0.5,0.1-0.8l10.5-25.2c0.2-0.6,0.6-1,1-1.3c0.4-0.3,1-0.4,1.5-0.4c0.5,0,1,0.1,1.4,0.4c0.4,0.3,0.8,0.7,0.9,1.2l10.4,24.7
		C693.8,1076.2,693.9,1076.5,693.9,1076.9z M676.5,1067.5h8.4l-4.3-9.9L676.5,1067.5z"/>
	<path class="st1" d="M715.7,1050.2c0.4,0.5,0.7,1.1,0.7,1.8s-0.2,1.4-0.7,1.8c-0.4,0.4-1,0.7-1.7,0.7h-6v22.9c0,0.5-0.1,1-0.4,1.4
		c-0.5,0.8-1.2,1.1-2.1,1.1c-0.7,0-1.3-0.3-1.8-0.8c-0.5-0.5-0.7-1.1-0.7-1.9v-22.8h-6c-0.7,0-1.3-0.2-1.7-0.7
		c-0.4-0.5-0.7-1.1-0.7-1.8c0-0.7,0.2-1.3,0.7-1.8c0.4-0.5,1-0.7,1.7-0.7H714C714.7,1049.5,715.3,1049.7,715.7,1050.2z"/>
	<path class="st1" d="M727,1076.1c0,0.5-0.2,1.3-0.6,1.7c-0.5,0.6-1.2,0.9-1.9,0.9c-0.7,0-1.3-0.2-1.8-0.7c-0.5-0.5-0.7-1-0.7-1.7
		V1053c0-0.7,0.2-1.3,0.7-1.7c0.4-0.4,0.9-0.6,1.4-0.7c0.8-0.1,1.7,0.2,2.2,0.8c0.4,0.5,0.6,1,0.6,1.7V1076.1z"/>
	<path class="st1" d="M758.7,1072.3c-1.2,2.3-2.9,4.2-5.1,5.5c-2.2,1.4-4.6,2-7.4,2c-2.7,0-5.2-0.7-7.4-2c-2.2-1.4-3.9-3.2-5.1-5.5
		c-1.2-2.3-1.8-4.9-1.8-7.7s0.6-5.3,1.8-7.7c1.2-2.3,2.9-4.2,5.1-5.5c2.2-1.4,4.6-2,7.4-2c2.7,0,5.2,0.7,7.4,2
		c2.2,1.4,3.9,3.2,5.1,5.5c1.2,2.3,1.9,4.9,1.9,7.7S760,1069.9,758.7,1072.3z M753.9,1059.5c-0.8-1.5-1.8-2.7-3.2-3.7
		c-1.4-0.9-2.9-1.4-4.6-1.4c-1.7,0-3.2,0.4-4.6,1.3c-1.3,0.9-2.4,2.1-3.1,3.7c-0.7,1.5-1.1,3.3-1.1,5.1c0,1.9,0.4,3.6,1.1,5.1
		c0.7,1.5,1.8,2.8,3.1,3.7s2.9,1.3,4.6,1.3c1.7,0,3.2-0.4,4.6-1.4c1.4-0.9,2.4-2.1,3.2-3.7s1.1-3.2,1.1-5.1
		C755.1,1062.7,754.7,1061,753.9,1059.5z"/>
	<path class="st1" d="M789.4,1050.6c0.4,0.4,0.6,0.9,0.6,1.5v24.7c0,0.7-0.2,1.3-0.7,1.8c-0.5,0.5-1.1,0.7-1.8,0.7
		c-0.4,0-0.8-0.1-1.2-0.2c-0.4-0.1-0.7-0.3-0.8-0.5L770,1059v18.2c0,0.6-0.2,1.1-0.6,1.5c-0.4,0.4-0.9,0.6-1.5,0.6
		c-0.6,0-1.1-0.2-1.4-0.6c-0.4-0.4-0.5-0.9-0.5-1.5v-24.7c0-0.7,0.2-1.3,0.7-1.8c0.5-0.5,1.1-0.7,1.8-0.7c0.4,0,0.8,0.1,1.2,0.3
		c0.4,0.2,0.7,0.4,0.9,0.7l15.3,19.5V1052c0-0.6,0.2-1.1,0.6-1.5c0.4-0.4,0.9-0.6,1.4-0.6C788.6,1050,789.1,1050.2,789.4,1050.6z"/>
</g>
<g>
	<path class="st0" d="M780.3,86c-0.1-11.4-7.2-19.4-17.3-19.4c-2.8,0-5.7,0.6-8.6,1.8l-126,52.4L628,54
		c-0.1-10.3-6.5-17.5-15.8-17.5c-2.5,0-5.2,0.6-7.8,1.6L475.3,91.7L475,38.3c0-9.2-5.8-15.6-14.1-15.6c-2.2,0-4.6,0.5-6.9,1.4
		L26.3,201.9c-9.6,4-17.1,15.3-17,25.8l1.5,280.7c0,9.2,5.9,15.6,14.1,15.6c2.2,0,4.6-0.5,6.9-1.5l45.5-18.9l0.6,110
		c0.1,10.4,6.6,17.6,15.9,17.6c0,0,0.3,0,0.3,0c2.5,0,5.2-0.6,7.8-1.7l54.4-22.6l0.6,114.7c0.1,11.4,7.2,19.3,17.3,19.3
		c2.8,0,5.7-0.6,8.6-1.8L760.4,499c12.4-5.1,22-19.8,21.9-33.3L780.3,86z"/>
	<path class="st1" d="M788.7,73.3c-0.1-11.4-7.2-19.4-17.3-19.4c-2.8,0-5.7,0.6-8.6,1.8l-126,52.4l-0.3-66.9
		c-0.1-10.3-6.5-17.5-15.8-17.5c-2.5,0-5.2,0.6-7.8,1.6L483.7,79l-0.3-53.4c0-9.2-5.8-15.6-14.1-15.6c-2.2,0-4.6,0.5-6.9,1.4
		L34.7,189.2c-9.6,4-17.1,15.3-17,25.8l1.5,280.7c0,9.2,5.9,15.6,14.1,15.6c2.2,0,4.6-0.5,6.9-1.5l45.5-18.9l0.6,110
		c0.1,10.4,6.6,17.6,15.9,17.6c0,0,0.3,0,0.3,0c2.5,0,5.2-0.6,7.8-1.7l54.4-22.6l0.6,114.7c0.1,11.4,7.2,19.3,17.3,19.3
		c2.8,0,5.7-0.6,8.6-1.8l577.6-240.1c12.4-5.1,22-19.8,21.9-33.3L788.7,73.3z"/>
	<g>
		<path d="M107.2,242.3L480.7,87.2l-0.3-60.6c0-8.5-6.4-12.8-14.1-9.6L38.6,194.7c-7.8,3.2-14,12.7-14,21.3l1.5,280.2
			c0,8.4,6.3,12.7,14,9.5l51.6-21.4l-1.1-216.5C90.5,257.6,97.9,246.2,107.2,242.3z"/>
		<path d="M91.7,483.9l0.6,117.8c0.1,10.2,7.6,15.3,16.9,11.5l61.5-25.5L170,451.3L91.7,483.9z"/>
		<path d="M633.7,116.3l-0.4-74c-0.1-10.1-7.6-15.2-16.8-11.4L480.7,87.4l0.5,92.3L633.7,116.3z"/>
		<path class="st2" d="M169,330.2c-0.1-11.5,8.4-24.3,18.9-28.7l291.8-121.2l-0.5-92.7L107.3,242.1c-9.2,3.8-16.7,15.1-16.6,25.3
			l1.1,216.7l77.9-32.3L169,330.2z"/>
		<path d="M784.7,74.3c-0.1-11.5-8.6-17.3-19-12.9l-132,54.8l1.4,259.7c0.1,10.1-7.4,21.5-16.6,25.3l-447.7,186l0.6,122
			c0.1,11.5,8.6,17.3,19.1,13l577.4-239.9c10.5-4.4,18.9-17.2,18.9-28.7L784.7,74.3z"/>
		<path class="st3" d="M634.7,376l-1.4-259.4l-152.6,63.4l0.7,126.9c0,8.5-6.2,18.1-14,21.3L169.7,451.8l0.7,135.5l447.7-186
			C627.3,397.4,634.7,386.1,634.7,376z"/>
		<path class="st4" d="M169.7,330.4l0.6,121.3l297.4-123.6c7.8-3.2,14-12.7,14-21.3L481,180.1L188.6,301.6
			C178.1,306,169.6,318.8,169.7,330.4z"/>
	</g>
</g>
</svg>
