<?xml version="1.0" encoding="utf-8"?>
<svg version="1.1" id="Layer_1" xmlns="http://www.w3.org/2000/svg" xmlns:xlink="http://www.w3.org/1999/xlink" x="0px" y="0px"
	 width="24px" height="24px" viewBox="0 0 24 24" style="enable-background:new 0 0 24 24;" xml:space="preserve">
<style type="text/css">
	.st0{fill:#FFFFFF;}
</style>
<g>
	<g>
		<path class="st0" d="M4,7v2c0,0.6-0.5,1-1,1H2v4h1c0.5,0,1,0.4,1,1v2c0,1.6,1.3,3,3,3h3v-2H7c-0.6,0-1-0.5-1-1v-2
			c0-1.3-0.8-2.4-2-2.8v-0.3c1.2-0.4,2-1.5,2-2.8V7c0-0.6,0.4-1,1-1h3V4H7C5.3,4,4,5.3,4,7z"/>
		<path class="st0" d="M21,10c-0.5,0-1-0.4-1-1V7c0-1.7-1.4-3-3-3h-3v2h3c0.5,0,1,0.4,1,1v2c0,1.3,0.8,2.4,2,2.8v0.3
			c-1.2,0.4-2,1.5-2,2.8v2c0,0.5-0.5,1-1,1h-3v2h3c1.6,0,3-1.4,3-3v-2c0-0.6,0.5-1,1-1h1v-4H21z"/>
	</g>
</g>
</svg>
