<?xml version="1.0" encoding="utf-8"?>
<svg version="1.1" id="Layer_1" xmlns="http://www.w3.org/2000/svg" xmlns:xlink="http://www.w3.org/1999/xlink" x="0px" y="0px"
	 width="48px" height="48px" viewBox="0 0 48 48" style="enable-background:new 0 0 48 48;" xml:space="preserve">
<style type="text/css">
	.st0{fill:#FFFFFF;}
</style>
<path class="st0" d="M38,16l-8,8h6c0,6.6-5.4,12-12,12c-2,0-3.9-0.5-5.6-1.4l-2.9,2.9C18,39.1,20.9,40,24,40c8.8,0,16-7.2,16-16h6
	L38,16z M12,24c0-6.6,5.4-12,12-12c2,0,3.9,0.5,5.6,1.4l2.9-2.9C30,8.9,27.1,8,24,8C15.2,8,8,15.2,8,24H2l8,8l8-8H12z"/>
</svg>
