<?xml version="1.0" encoding="utf-8"?>
<svg version="1.1" id="Layer_1" xmlns="http://www.w3.org/2000/svg" xmlns:xlink="http://www.w3.org/1999/xlink" x="0px" y="0px"
	 width="24px" height="24px" viewBox="0 0 24 24" style="enable-background:new 0 0 24 24;" xml:space="preserve">
<style type="text/css">
	.st0{fill:#FFFFFF;}
</style>
<path class="st0" d="M12,15.1c1.7,0,3.1-1.4,3.1-3.1S13.7,8.9,12,8.9S8.9,10.3,8.9,12S10.3,15.1,12,15.1 M12,14.2
	c-1.2,0-2.2-1-2.2-2.2s1-2.2,2.2-2.2s2.2,1,2.2,2.2S13.2,14.2,12,14.2L12,14.2z"/>
<path class="st0" d="M21.1,13.7l-1.5-1.2c0-0.2,0-0.3,0-0.5c0-0.2,0-0.3,0-0.5l1.8-1.4l0.6-0.5l-0.4-0.7l-2.2-3.8l-0.4-0.7
	c-0.5,0.2-2.3,0.9-2.9,1.2c-0.3-0.2-0.5-0.3-0.8-0.5c-0.1-0.6-0.4-2.5-0.5-3c-1.1,0-4.8,0-5.9,0C9,2.6,8.7,4.6,8.6,5.2
	C8.3,5.3,8,5.5,7.8,5.6c-0.5-0.2-2.4-1-2.9-1.2L4.5,5.2L2.3,8.9L1.9,9.6l0.6,0.5l1.8,1.4c0,0.1,0,0.3,0,0.5c0,0.2,0,0.3,0,0.5
	l-1.5,1.2l-0.3,0.2L2,14.4l0.4,0.7l2.2,3.8l0.4,0.7l0.7-0.3l2.2-0.9c0.3,0.2,0.5,0.3,0.8,0.5l0.3,2.3L9,21.9h0.8h4.4h0.8l0.1-0.8
	c0,0,0-0.2,0.1-0.4l0.3-1.9c0.3-0.1,0.5-0.3,0.8-0.5l2.2,0.9l0.7,0.3l0.4-0.7l2.2-3.8l0.4-0.6l-0.6-0.5
	C21.5,13.9,21.3,13.8,21.1,13.7z M18.5,17.9l-2.5-1l-0.6,0.4c-0.2,0.1-0.4,0.3-0.7,0.4L14.2,18c0,0-0.4,2.6-0.4,2.6h-3.7L9.8,18
	l-0.6-0.3c-0.2-0.1-0.4-0.2-0.7-0.4L8,16.9l-2.5,1l-1.8-3.2l2.1-1.6l-0.1-0.7c0-0.1,0-0.3,0-0.4c0-0.1,0-0.3,0-0.4l0-0.7L3.6,9.3
	l1.8-3.2l2.5,1l0.6-0.4c0.2-0.1,0.4-0.3,0.7-0.4L9.8,6l0.4-2.6h3.7L14.2,6l0.6,0.3c0.2,0.1,0.5,0.3,0.7,0.4l0.6,0.4l2.4-1l1.8,3.2
	l-2.1,1.6l0,0.7c0,0.1,0,0.2,0,0.4c0,0.1,0,0.3,0,0.4l-0.1,0.7c0,0,2.1,1.6,2.1,1.6L18.5,17.9z"/>
</svg>
