<?xml version="1.0" encoding="utf-8"?>
<svg version="1.1" id="Layer_1" xmlns="http://www.w3.org/2000/svg" xmlns:xlink="http://www.w3.org/1999/xlink" x="0px" y="0px"
	 width="24px" height="24px" viewBox="0 0 24 24" style="enable-background:new 0 0 24 24;" xml:space="preserve">
<style type="text/css">
	.st0{fill:#FFFFFF;}
</style>
<path class="st0" d="M18.9,10.4l2.5-2.5l-4.2-4.2l-2.5,2.5L18.9,10.4z M13.2,7.6L4,16.8V21h4.2l9.2-9.2L13.2,7.6z M19,17.5
	c0,2.2-2.5,3.5-5,3.5c-0.5,0-1-0.1-1-0.1c0-0.3,0-2,0-2s0.5,0.1,1,0.1c1.5,0,3-0.7,3-1.5c0-0.5-0.5-0.9-1.2-1.2l1.5-1.5
	C18.3,15.4,19,16.3,19,17.5z M4.6,13.4C3.6,12.8,3,12.1,3,11c0-1.8,1.9-2.6,3.6-3.4C7.6,7.2,9,6.6,9,6c0-0.4-0.8-1-2-1
	C5.8,5,5,5.6,5,6H3c0-1.7,1.7-3,4-3c2.2,0,4,1.3,4,3c0,1.9-1.9,2.7-3.6,3.5C6.4,9.9,5,10.5,5,11c0,0.3,0.4,0.6,1.1,0.9L4.6,13.4z"/>
</svg>
