<?xml version="1.0" encoding="utf-8"?>
<svg version="1.1" id="Layer_1" xmlns="http://www.w3.org/2000/svg" xmlns:xlink="http://www.w3.org/1999/xlink" x="0px" y="0px"
	 width="24px" height="24px" viewBox="0 0 24 24" style="enable-background:new 0 0 24 24;" xml:space="preserve">
<style type="text/css">
	.st0{fill:#FFFFFF;}
</style>
<path class="st0" d="M19,3H5C3.9,3,3,3.9,3,5v14c0,1.1,0.9,2,2,2h14c1.1,0,2-0.9,2-2V5C21,3.9,20.1,3,19,3z M17.2,12
	c0,0.2,0,0.5,0,0.7l0,0l1.5,1.2c0.1,0.1,0.2,0.2,0.2,0.2L17.2,17l-2-0.8l0,0c-0.4,0.3-0.8,0.5-1.2,0.7h0l-0.3,1.9c0,0.2,0,0.3,0,0.3
	h-3.4L10,16.8h0c-0.4-0.2-0.8-0.4-1.2-0.7l0,0l-2,0.8L5.1,14c0,0,0.1-0.1,0.2-0.2l1.5-1.2l0,0c0-0.2-0.1-0.5-0.1-0.7s0-0.5,0.1-0.7
	l0,0L5.1,10L6.8,7l2,0.8v0C9.2,7.6,9.6,7.3,10,7.2h0L10.3,5h3.4L14,7.2h0c0.4,0.2,0.8,0.4,1.2,0.7v0l2-0.8l1.7,2.9l-1.7,1.3l0,0
	C17.2,11.5,17.2,11.8,17.2,12z"/>
<circle class="st0" cx="12" cy="12" r="2.4"/>
</svg>
