<?xml version="1.0" encoding="utf-8"?>
<svg version="1.1" id="Layer_1" xmlns="http://www.w3.org/2000/svg" xmlns:xlink="http://www.w3.org/1999/xlink" x="0px" y="0px"
	 width="24px" height="24px" viewBox="0 0 24 24" style="enable-background:new 0 0 24 24;" xml:space="preserve">
<style type="text/css">
	.st0{fill:#FFFFFF;}
</style>
<g>
	<path class="st0" d="M18,10.5V4H2v16h16v-6.5l4,4v-11L18,10.5z M10,8c1.1,0,2,0.9,2,2s-0.9,2-2,2s-2-0.9-2-2S8.9,8,10,8z M14,16H6
		v-0.6c0-0.8,0.5-1.5,1.2-1.9C8.1,13.2,9,13,10,13s1.9,0.2,2.8,0.6c0.7,0.3,1.2,1,1.2,1.9V16z"/>
</g>
</svg>
